<?xml version="1.0" encoding="UTF-8" standalone="no"?>
<!-- Created with Inkscape (http://www.inkscape.org/) -->

<svg
   xmlns:dc="http://purl.org/dc/elements/1.1/"
   xmlns:cc="http://creativecommons.org/ns#"
   xmlns:rdf="http://www.w3.org/1999/02/22-rdf-syntax-ns#"
   xmlns:svg="http://www.w3.org/2000/svg"
   xmlns="http://www.w3.org/2000/svg"
   xmlns:sodipodi="http://sodipodi.sourceforge.net/DTD/sodipodi-0.dtd"
   xmlns:inkscape="http://www.inkscape.org/namespaces/inkscape"
   id="svg2985"
   version="1.1"
   inkscape:version="0.91 r13725"
   width="134.41986"
   height="131.35812"
   xml:space="preserve"
   sodipodi:docname="cat_on.svg"
   inkscape:export-filename="/Users/karel/litterbox_graphics/litterbox_off.png"
   inkscape:export-xdpi="299.95569"
   inkscape:export-ydpi="299.95569"><metadata
     id="metadata2991"><rdf:RDF><cc:Work
         rdf:about=""><dc:format>image/svg+xml</dc:format><dc:type
           rdf:resource="http://purl.org/dc/dcmitype/StillImage" /><dc:title></dc:title></cc:Work></rdf:RDF></metadata><defs
     id="defs2989"><clipPath
       clipPathUnits="userSpaceOnUse"
       id="clipPath3019"><path
         d="M 0,170 446,170 446,0 0,0 0,170 Z"
         id="path3021"
         inkscape:connector-curvature="0" /></clipPath><clipPath
       clipPathUnits="userSpaceOnUse"
       id="clipPath4903"><path
         style="fill:none;fill-rule:evenodd;stroke:#000000;stroke-width:0.80000001px;stroke-linecap:butt;stroke-linejoin:miter;stroke-opacity:1"
         d="M 74.107126,152.71277 39.066057,134.48194 35.514598,103.70262 67.24097,95.652649 96.362944,76.948296 126.1952,94.705593 l 21.78229,57.060117 -37.64547,7.10292 z"
         id="path4905"
         inkscape:connector-curvature="0" /></clipPath></defs><sodipodi:namedview
     pagecolor="#ffffff"
     bordercolor="#666666"
     borderopacity="1"
     objecttolerance="10"
     gridtolerance="10"
     guidetolerance="10"
     inkscape:pageopacity="0"
     inkscape:pageshadow="2"
     inkscape:window-width="1280"
     inkscape:window-height="700"
     id="namedview2987"
     showgrid="false"
     inkscape:zoom="3.3172847"
     inkscape:cx="118.08636"
     inkscape:cy="60.781124"
     inkscape:window-x="32"
     inkscape:window-y="23"
     inkscape:window-maximized="0"
     inkscape:current-layer="g2993"
     fit-margin-top="0"
     fit-margin-left="0"
     fit-margin-right="0"
     fit-margin-bottom="0" /><g
     id="g2993"
     inkscape:groupmode="layer"
     inkscape:label="dropbox-logos_dropbox-logotype-blue"
     transform="matrix(1.25,0,0,-1.25,-53.850732,175.06005)"><g
       id="g2995"
       transform="translate(76.1162,130.9785)"
       style="fill:#ffffff;fill-opacity:1;stroke:#19a0ee;stroke-width:4;stroke-miterlimit:4;stroke-dasharray:none;stroke-opacity:1"><path
         d="M 0,0 -29.63,-19.346 -9.143,-35.752 20.732,-17.305 0,0 Z"
         style="fill:#ffffff;fill-opacity:1;fill-rule:nonzero;stroke:#19a0ee;stroke-width:4;stroke-miterlimit:4;stroke-dasharray:none;stroke-opacity:1"
         id="path2997"
         inkscape:connector-curvature="0" /></g><g
       id="g3007"
       transform="translate(147.2109,111.6328)"
       style="fill:none;stroke:#19a0ee;stroke-width:4;stroke-miterlimit:4;stroke-dasharray:none;stroke-opacity:1"><path
         d="M 0,0 -29.629,19.346 -50.362,2.041 -20.487,-16.406 0,0 Z"
         style="fill:none;fill-opacity:1;fill-rule:nonzero;stroke:#19a0ee;stroke-width:4;stroke-miterlimit:4;stroke-dasharray:none;stroke-opacity:1"
         id="path3009"
         inkscape:connector-curvature="0" /></g><g
       id="g3011"
       transform="translate(96.9092,73.0566)"
       style="fill:#ffffff;fill-opacity:1;stroke:#19a0ee;stroke-width:4;stroke-miterlimit:4;stroke-dasharray:none;stroke-opacity:1"><path
         d="m 0,4.8 -20.793,-17.254 -8.897,5.809 0,-11.313 29.69,-17.805 29.691,17.805 0,11.313 -8.896,-5.809 z"
         style="fill:#ffffff;fill-opacity:1;fill-rule:nonzero;stroke:#19a0ee;stroke-width:4;stroke-miterlimit:4;stroke-dasharray:none;stroke-opacity:1"
         id="path3013"
         inkscape:connector-curvature="0"
         sodipodi:nodetypes="ccccccccc" /></g><path
       id="path18418"
       d="m 66.225053,136.97535 c 3.762075,-3.53691 9.180651,-6.58232 9.546388,-12.47673 0.211769,-3.4128 -1.931424,-6.8571 -0.908643,-10.31731 l 0.95975,0.23994 c 0.01435,-1.73259 0.25594,-3.77182 2.159436,-4.31888 l 0,0.95975 c 0.891272,-0.87049 2.760936,-1.73738 3.213409,-2.90156 1.321479,-3.40015 -2.961427,-8.403805 -3.453346,-11.734615 -3.982025,1.05405 -9.101568,0.43525 -9.347935,-4.798746 -0.07201,-1.529842 1.289279,-3.926096 0.852568,-5.237834 -0.790569,-2.37466 -4.09047,-3.609618 -4.94113,-6.279161 1.06154,0.457321 2.005154,1.111869 3.11919,1.439624 -1.434612,-2.523422 -2.069601,-5.708351 -0.719812,-8.397808 0.435942,0.529301 0.574362,1.007257 0.719812,1.679561 0.828504,-2.160636 1.477943,-4.601279 3.838998,-5.51856 -0.09845,0.665827 -0.275664,1.278147 -0.479874,1.9195 2.575894,-3.380719 6.219032,-5.746501 10.557244,-5.758498 l -1.9195,1.919499 c 3.47842,-1.341729 6.635564,-1.837681 10.317308,-1.679561 -0.435726,0.657908 -0.911282,0.819625 -1.679562,0.959749 1.850638,0.547057 3.859393,0.05182 5.758498,0.387499 3.646808,0.644472 6.847818,2.212463 10.077368,3.931374 -0.62695,0.263451 -1.23927,0.238258 -1.9195,0.239938 l 4.55881,1.439624 c -2.52414,1.088836 -6.36434,1.656768 -9.117622,1.679561 0.432128,0.134845 0.749088,0.197709 1.199688,0.239938 -0.682136,0.900005 -2.071376,0.928557 -3.119184,1.199687 0.847456,0.887528 0.698276,-2.09973 0.722988,-0.905802 0.252416,-0.830664 0.417916,1.951688 1.0919,1.322813 0.854656,-0.797312 2.83821,-0.882729 3.94361,-0.895926 3.5074,-0.04199 6.67745,1.395955 10.07737,1.437705 3.57771,0.04391 8.87,-0.965268 11.98631,1.356365 2.75472,2.052185 -0.11397,4.693415 -2.38882,5.362841 3.92658,3.937373 6.25709,13.426898 -2.15943,13.645478 -1.14211,0.0298 -2.28373,-0.34719 -3.35913,-0.68886 -0.74668,3.22596 -4.76155,8.383885 -3.45438,11.746615 0.44293,1.13922 2.07738,1.87391 2.97451,2.64962 0,-0.43116 0.003,-0.36494 0.23993,-0.71981 1.75899,0.65551 2.12417,2.62156 2.15944,4.31888 l 0.95976,-0.23994 c 0.8237,3.46901 -1.10804,6.89733 -0.97991,10.31731 0.19771,5.28188 5.41827,9.56567 9.37771,12.2368 l 0,0.47987 c -6.38545,1.53783 -12.8436,-0.66658 -19.19499,-1.106 -3.56667,-0.24677 -7.613928,0.62613 -11.277052,0.62613 -3.508127,0 -7.378077,-0.87806 -10.797185,-0.62632 -5.704439,0.41998 -13.721802,3.51525 -19.19499,0.86625 z"
       style="fill:#00c221;fill-opacity:1;stroke:none;stroke-width:4;stroke-miterlimit:4;stroke-dasharray:none;stroke-opacity:1"
       inkscape:connector-curvature="0"
       clip-path="url(#clipPath4903)"
       sodipodi:nodetypes="csccccscssccccccccccccccccccccsccccccccccccsssc"
       inkscape:export-xdpi="299.95569"
       inkscape:export-ydpi="299.95569" /><g
       id="g2999"
       transform="translate(46.4863,78.8198)"
       style="fill:#ffffff;fill-opacity:1;stroke:#19a0ee;stroke-width:4;stroke-miterlimit:4;stroke-dasharray:none;stroke-opacity:1"><path
         d="M 0,0 29.63,-19.346 50.362,-2.04 20.487,16.407 0,0 Z"
         style="fill:#ffffff;fill-opacity:1;fill-rule:nonzero;stroke:#19a0ee;stroke-width:4;stroke-miterlimit:4;stroke-dasharray:none;stroke-opacity:1"
         id="path3001"
         inkscape:connector-curvature="0" /></g><g
       id="g3003"
       transform="translate(96.8486,76.7798)"
       style="fill:#ffffff;fill-opacity:1;stroke:#19a0ee;stroke-width:4;stroke-miterlimit:4;stroke-dasharray:none;stroke-opacity:1"><path
         d="M 0,0 20.733,-17.306 50.362,2.04 29.875,18.447 0,0 Z"
         style="fill:#ffffff;fill-opacity:1;fill-rule:nonzero;stroke:#19a0ee;stroke-width:4;stroke-miterlimit:4;stroke-dasharray:none;stroke-opacity:1"
         id="path3005"
         inkscape:connector-curvature="0" /></g></g></svg>