<?xml version="1.0" encoding="utf-8"?>
<!-- Generator: Adobe Illustrator 19.0.0, SVG Export Plug-In . SVG Version: 6.00 Build 0)  -->
<svg version="1.1" id="Layer_1" xmlns="http://www.w3.org/2000/svg" xmlns:xlink="http://www.w3.org/1999/xlink" x="0px" y="0px"
	 viewBox="0 0 175.2 175.2" style="enable-background:new 0 0 175.2 175.2;" xml:space="preserve">
<style type="text/css">
	.st0{fill:#22D014;}
	.st1{fill:#FAFCF8;}
	.st2{fill:#28CE18;}
</style>
<g>
	<path class="st0" d="M87.6,175.1c-28,0-56-0.1-84,0.1c-3,0-3.6-0.6-3.6-3.6c0.1-56,0.1-112,0-168C0,0.6,0.6,0,3.6,0
		c56,0.1,112,0.1,168,0c3,0,3.6,0.6,3.6,3.6c-0.1,56-0.1,112,0,168c0,3-0.6,3.6-3.6,3.6C143.6,175,115.6,175.1,87.6,175.1z
		 M87.6,145.5c32.3-0.1,57.9-26,57.7-58.4c-0.2-32-26.1-57.6-58.1-57.5c-31.9,0.1-57.9,26-57.9,57.9
		C29.3,119.6,55.4,145.6,87.6,145.5z"/>
	<path class="st1" d="M87.6,145.5c-32.1,0.1-58.3-25.9-58.3-58c0-31.9,26-57.8,57.9-57.9c32-0.1,57.9,25.6,58.1,57.5
		C145.5,119.4,119.9,145.4,87.6,145.5z M87.4,37.1c-27.8,0-50.3,22.3-50.3,50c0,28.2,22.1,50.7,50.1,50.8
		c27.9,0.1,50.7-22.5,50.8-50.3C138,59.8,115.3,37.2,87.4,37.1z"/>
	<path class="st2" d="M87.4,37.1c27.9,0,50.6,22.7,50.5,50.5c-0.1,27.8-22.9,50.4-50.8,50.3c-27.9-0.1-50.1-22.6-50.1-50.8
		C37.1,59.5,59.6,37.1,87.4,37.1z M56,89.4c0,8.5,0,17,0,25.5c0,3.4,1.6,5.7,5,6.6c3,0.8,5.7-0.1,7.5-2.6c1.4-2,1.3-4.4,1.3-6.7
		c0-14.8,0-29.6,0-44.5c0-1.4-0.7-3.7,0.9-4c2.9-0.5,6.1-0.7,8.9,0c2,0.5,1,3.2,1,4.9c0.1,15,0,30,0.1,45c0,5.6,2.6,8.4,7.1,8.1
		c4.1-0.3,6.3-3,6.3-8c0.1-15.3,0.3-30.6-0.1-46c-0.1-5.3,2.8-4.3,5.9-4.5c3.5-0.2,5.3,0.3,5.2,4.7c-0.3,15.1-0.2,30.3-0.1,45.5
		c0,5.4,2.8,8.4,7.1,8.4c4.1-0.1,6.7-3.1,6.7-8.2c0.1-16,0.1-32,0-48c-0.1-9.3-6.4-15.8-15.6-16c-10.5-0.3-21-0.2-31.5,0
		c-9.6,0.2-15.7,6.6-15.8,16.3C55.9,73.7,56,81.6,56,89.4z"/>
	<path class="st1" d="M56,89.4c0-7.8-0.1-15.7,0-23.5c0.1-9.7,6.2-16.1,15.8-16.3c10.5-0.2,21-0.2,31.5,0c9.2,0.2,15.5,6.7,15.6,16
		c0.1,16,0.1,32,0,48c0,5.1-2.6,8.1-6.7,8.2c-4.4,0.1-7.1-3-7.1-8.4c-0.1-15.2-0.2-30.3,0.1-45.5c0.1-4.4-1.7-4.9-5.2-4.7
		c-3.1,0.2-6.1-0.7-5.9,4.5c0.4,15.3,0.2,30.6,0.1,46c0,5.1-2.2,7.7-6.3,8c-4.5,0.3-7.1-2.5-7.1-8.1c-0.1-15,0-30-0.1-45
		c0-1.7,1-4.4-1-4.9c-2.8-0.7-6-0.6-8.9,0c-1.6,0.3-0.9,2.6-0.9,4c0,14.8,0,29.6,0,44.5c0,2.4,0.1,4.8-1.3,6.7
		c-1.8,2.5-4.5,3.4-7.5,2.6c-3.3-0.9-4.9-3.2-5-6.6C56,106.4,56,97.9,56,89.4z"/>
</g>
</svg>
