<?xml version="1.0" encoding="utf-8"?>
<!-- Generator: Adobe Illustrator 19.0.0, SVG Export Plug-In . SVG Version: 6.00 Build 0)  -->
<svg version="1.1" id="Layer_1" xmlns="http://www.w3.org/2000/svg" xmlns:xlink="http://www.w3.org/1999/xlink" x="0px" y="0px"
	 viewBox="0 0 176.1 180.1" style="enable-background:new 0 0 176.1 180.1;" xml:space="preserve">
<style type="text/css">
	.st0{fill:#FEFEFE;}
	.st1{fill:#F5F5F5;}
	.st2{fill:#F9F9F9;}
	.st3{fill:#FBFBFB;}
	.st4{fill:#F7F7F7;}
	.st5{fill:#F6F6F6;}
	.st6{fill:#EDEDED;}
	.st7{fill:#F0F0F0;}
	.st8{fill:#E7E7E7;}
	.st9{fill:#F3F3F3;}
	.st10{fill:#C51E1E;}
	.st11{fill:#C81E1E;}
	.st12{fill:#C21D1D;}
	.st13{fill:#D92121;}
	.st14{fill:#D82121;}
	.st15{fill:#D12020;}
	.st16{fill:#CE1F1F;}
	.st17{fill:#D32020;}
	.st18{fill:#D52020;}
	.st19{fill:#DF2222;}
	.st20{fill:#DE2222;}
	.st21{fill:#DB2121;}
	.st22{fill:#CF1F1F;}
	.st23{fill:#CB1F1F;}
	.st24{fill:#DC2121;}
	.st25{fill:#CA1F1F;}
	.st26{fill:#C91E1E;}
	.st27{fill:#CC1F1F;}
	.st28{fill:#D72121;}
	.st29{fill:#DFDFDF;}
	.st30{fill:#E5E5E5;}
	.st31{fill:#E2E2E2;}
	.st32{fill:#E8E8E8;}
	.st33{fill:#ECECEC;}
	.st34{fill:#E0E0E0;}
	.st35{fill:#E9E9E9;}
	.st36{fill:#E6E6E6;}
	.st37{fill:#D62020;}
</style>
<g>
	<path class="st0" d="M0,75.1c0-24.4,0-48.8,0-73.2C0,0.5,0.1,0,1.7,0c57.5,0.1,115.1,0.1,172.6,0c1.7,0,1.7,0.5,1.7,1.9
		c0,26.4,0,52.8,0,79.2c-1.2,0-1.1-1.1-1.2-1.8c-0.8-3.9-1.7-7.8-2.5-11.6c-0.8-3.7-2.4-7.2-4.1-10.6c-1.3-3.5-3.5-6.5-4.9-10
		c-0.6-1.1-1.3-2.2-2.1-3.1c-0.2-0.2-0.3-0.4-0.4-0.6c-2.6-4.7-6-8.7-10-12.4c-2.6-2.4-4.8-5.3-7.7-7.4c-6.9-5-14-9.4-21.9-12.8
		c-8.4-3.6-17-5.8-26-6.4C83.1,3.6,71.1,4.5,59.6,8.8c-13.2,5-25.2,12.1-35,22.3c-2.7,2.8-5.1,6-7.7,8.9c-5.2,6.5-9,13.8-11.7,21.6
		c-1.3,3.8-2.6,7.5-3.4,11.5C1.6,74,1.5,75.2,0,75.1z"/>
	<path class="st0" d="M176,106.6c0,23.9,0,47.8,0,71.6c0,1.6-0.4,1.9-1.9,1.9c-25.7-0.1-51.4,0-77.1,0c0.1-1.4,1.3-1.1,2.1-1.2
		c8.3-1,16.2-3.4,23.9-6.5c2.5-0.8,4.7-1.9,6.9-3.3c0.2-0.1,0.4-0.2,0.6-0.4c0.9-0.5,2.1-0.6,2.7-1.6c0.6-0.6,1.4-1.2,2.2-1.5
		c2.6-1.4,5-3,7.3-4.8c1.2-0.5,2-1.5,2.9-2.3c0.2-0.2,0.4-0.3,0.6-0.4c7.9-6.9,14.3-15.1,19.3-24.3c4.1-7.4,7-15.3,8.6-23.6
		c0-0.2,0.1-0.5,0.2-0.7C175,108.5,174.3,106.8,176,106.6z"/>
	<path class="st0" d="M79,180.1c-25.7,0-51.4,0-77.1,0c-1.5,0-1.9-0.3-1.9-1.9c0.1-23.9,0-47.8,0-71.6c1.7,0.2,1.4,1.7,1.7,2.6
		c1.2,5.6,2.9,11,5.1,16.4c3.3,8.2,7.8,15.6,13.4,22.4c8.3,10.2,18.6,18,30.5,23.7c1.1,0.5,2.1,1,3.3,1.1c5.9,2.1,11.9,4.2,18.1,5.3
		c1.8,0.3,3.6,0.3,5.4,0.8C78.1,179.1,79,178.9,79,180.1z"/>
	<path class="st1" d="M79,180.1c-3.4-1.3-7.1-1-10.6-2c-5-1.5-10.2-2.6-14.9-5c-4.7-1.8-9.1-4.3-13.3-7c-0.6-0.4-1.4-0.9-0.4-1.7
		c1-0.2,1.7,0.5,2.5,1c7,3.9,14.2,7.6,22,9.8c8.9,2.5,17.9,3.7,27.1,3.3c5.7-0.3,11.4-0.9,16.9-2.5c3.3-1,6.7-1.3,9.7-3.1
		c5.4-2.2,10.7-4.7,15.8-7.7c0.7-0.2,1.4-0.5,2.2-0.2c0.5,0.6,0,0.9-0.4,1.2c-0.7,0.5-1.3,1-2,1.5c-0.9,0.6-2.2,0.7-3,1.5
		c-2.3,1.3-4.6,2.4-7,3.5c-5,2.8-10.5,3.9-15.9,5.5c-3.5,1.1-7.2,0.7-10.6,2C91,180.1,85,180.1,79,180.1z"/>
	<path class="st2" d="M39.5,164.6c2.3,3.1,6.2,3.9,9.3,5.9c1.5,1,3.1,1.8,4.7,2.6c-0.9,0.5-1.6-0.1-2.3-0.4
		c-10.6-4.9-20-11.5-27.9-20.1c-7.7-8.4-13.8-17.9-17.9-28.7c-2-5.3-3.4-10.6-4.6-16.1c-0.1-0.4-0.5-0.8-0.7-1.2c0-4.3,0-8.7,0-13
		c0.3-0.2,0.5-0.1,0.7,0.1c0.4,0.6,0.4,1.3,0.4,2c0.1,1.9-0.2,3.8,0.2,5.6c0.1,0.4,0.2,0.8,0.2,1.2c0.1,1,0,2,0.3,3
		c0.1,0.2,0.1,0.5,0.2,0.7c0,1.5,0.3,2.9,0.8,4.3c0.1,0.2,0.1,0.5,0.2,0.7c0.4,3.2,1.5,6.2,2.7,9.2c2.9,8.4,6.7,16.3,12.4,23.2
		c2.8,3,5.3,6.4,8.2,9.3c3.5,3.5,7.3,6.7,11.3,9.6C38.6,163.1,39.4,163.5,39.5,164.6z"/>
	<path class="st3" d="M0,75.1c2-2,1.7-4.9,2.4-7.4c3-10,7.3-19.3,13.5-27.7c0.1-0.2,0.4-0.3,0.6-0.4c1.1,2-1,2.8-1.5,4.2
		c-1.6,2.7-3.4,5.4-4.4,8.4c-0.4,0.9-0.8,1.7-1.2,2.5c-0.8,1.2-1.8,2.4-1.8,4c-0.2,1.1-0.9,2-1.3,3.1c-1.8,3.6-2.7,7.4-3.2,11.3
		c0,0.3-0.1,0.5-0.2,0.8c-1,3-1.3,6-1.7,9.1c-0.1,1,0.4,2.2-1.2,2.5C0,82.1,0,78.6,0,75.1z"/>
	<path class="st4" d="M168.5,56.6c2.1,3.6,3.7,7.5,4.5,11.6c0.9,4.3,2,8.6,3,12.9c0,5.7,0,11.3,0,17c-0.6,1.8-0.2,3.7-0.4,5.6
		c-0.2,2-0.7,4-1.1,5.9c-0.4,0.3-0.3,1.8-1.4,0.6c-0.4-3.1,0.7-6,0.9-9.1c0.5-6.1,0.6-12.2-0.1-18.3c-0.3-2.6-0.6-5.3-1.1-7.9
		c-0.3-5.3-2.5-10.1-4.2-15c-0.3-0.8-0.7-1.5-0.7-2.4C168.1,57.2,168.2,56.8,168.5,56.6z"/>
	<path class="st1" d="M0,85.6c0.5-3.2,1-6.4,1.5-9.6c0.1-0.9,0.3-1.8,1-2.4c0.6,0.6,0.6,1.3,0.4,2.1c-1.3,5.3-1.2,10.8-1.8,16.1
		c-0.1,0.7-0.1,1.3-0.7,1.8c-0.2,0-0.3,0-0.5,0C0,90.9,0,88.2,0,85.6z"/>
	<path class="st2" d="M174.5,109.6c0.3-3.9,0.7-7.7,1.5-11.5c0,2.8,0,5.7,0,8.5C174.8,107.2,175.8,108.9,174.5,109.6z"/>
	<path class="st2" d="M14.5,43.6c0.3-1.5,2.2-2.2,2-4C22.1,32.6,28,26,35.4,21c6.2-4.2,12.5-8,19.4-10.9c6.9-2.8,14-4.8,21.3-5.8
		c5.2-0.7,10.5-0.7,15.7-0.4c4.7,0.2,9.3,0.6,13.9,1.6c5.6,1.2,10.9,2.9,16.2,5.1c7.9,3.2,14.9,7.8,21.7,12.8
		c2.2,1.6,4.2,3.7,6.1,5.8c2.7,2.9,5.7,5.5,8.1,8.7c1.5,1.9,2.6,3.9,3.6,5.9c0.6,3,2.9,5.3,4,8.1c0.6,1.3,1.2,2.5,1.9,3.7
		c0.1,0.2,0.2,0.4,0.3,0.7c1.9,5.9,4.3,11.6,5.3,17.8c0.6,3.6,1,7.2,1.5,10.9c0.4,7.7,0,15.4-1.7,22.9c-1.1,6.4-3.4,12.5-6,18.4
		c-3.2,6.7-7,13-11.6,18.7c-3.9,4.6-8.1,8.9-12.9,12.7c-6.9,5.7-14.6,9.9-22.8,13.3c-7.9,3-16,4.8-24.5,5.5
		c-15.9,1.4-30.9-1.8-45.2-8.5c-2.8-1.3-5.4-2.9-8-4.5c-5.9-4-11.3-8.5-16.5-13.3c-3.6-4.7-7.7-9.1-10.7-14.2
		c-2.5-4.3-4.7-8.7-6.7-13.2c-2.2-5.6-4.1-11.3-5-17.3c-0.8-5.6-1.9-11.2-1.3-17c0.4-1.2,0.3-2.5,0.3-3.7c0-0.8,0-1.7,0-2.5
		c0.2-0.8,0.1-1.6,0.2-2.4C3,74.6,3.8,69.5,5.3,64.6c0.9-2.8,2.1-5.6,3.1-8.4c0.1-0.2,0.2-0.5,0.2-0.7c0.7-0.9,1.1-2,1.6-3.1
		c0.9-2.3,2.2-4.5,3.4-6.6C14.2,45.1,14.8,44.5,14.5,43.6z"/>
	<path class="st5" d="M165,52.1c-1.3-2.4-2.6-4.8-4-7.2c-0.4-0.7-0.6-1.2,0.5-1.3c0,0,0,0,0,0c0.6,1,1.2,2.1,2,3
		c1.9,3.2,3.8,6.4,5,10c0,0.3,0,0.7,0,1c-1.3,0-0.9-1.4-1.5-2l0,0C166.4,54.3,166.3,52.9,165,52.1z"/>
	<path class="st2" d="M163.5,46.6c-1.2-0.6-1.8-1.7-2-3C162.6,44.3,163.2,45.3,163.5,46.6z"/>
	<path class="st2" d="M173.5,110.6c0.3-0.3,0.7-0.7,1-1c0.6,1.7-0.3,3.3-0.7,4.8c-3.2,12.6-9.1,23.8-17.2,33.8
		c-2.7,3.3-5.9,6.3-8.8,9.4c-0.5,0.5-0.9,1-1.7,0.9c-0.3-1.2,0.9-1.8,1.1-2.8c0.7-1.3,1.7-2.2,2.8-3.2c5.1-4.6,8.8-10.3,12.5-15.9
		c2.6-4.1,4.6-8.6,6.5-13c1.5-3.6,2.7-7.3,3.4-11.1C172.5,111.7,172.6,110.9,173.5,110.6z"/>
	<path class="st4" d="M147.5,156.1c0.1,1.2-1.1,1.6-1.5,2.5c-1.1,0.7-1.9,1.8-3,2.5c-2.2,2.1-4.7,3.7-7.5,5c0.2-0.3,0.3-0.7,0.5-1
		c-0.2-0.9,0.5-1.2,1-1.5c3-2.1,5.7-4.5,8.6-6.7C146.1,156.4,146.7,155.7,147.5,156.1z"/>
	<path class="st4" d="M123.5,172.6c2.2-1.5,4.4-2.8,7-3.5C128.5,170.9,126.2,172,123.5,172.6z"/>
	<path class="st2" d="M143,161.1c0.8-1.1,1.5-2.3,3-2.5C145.2,159.6,144.5,160.8,143,161.1z"/>
	<path class="st4" d="M130.5,169.1c0.7-1.2,1.8-1.5,3-1.5C132.9,168.8,131.6,168.7,130.5,169.1z"/>
	<path class="st6" d="M39.5,164.6c-8.3-5.7-15.5-12.5-21.5-20.5c-2.2-3.1-4.5-6.2-6.3-9.6c-0.3-0.6-0.6-1.2-0.3-1.8
		c2.2,0.3,2.3,2.5,3.4,3.8c3.4,4.9,6.6,9.8,10.9,13.9c4,4.3,8.6,7.9,13.2,11.5c6,4.5,12.5,8.1,19.7,10.3c0.5,0.1,1,0.4,1.5,0.6
		c5.9,2.2,12.1,3.6,18.4,4.2c8.7,0.9,17.4,0.6,26-1c3.8-0.7,7.6-1.9,11.3-3.1c0.3-0.1,0.5-0.2,0.8-0.2c0.7-0.1,1.4-0.1,2,0.5
		c-1.4,1.4-3.4,1.8-5.2,2.3c-9.5,2.6-19.1,4.3-28.9,3.7c-9.1-0.5-18-2.2-26.6-5.5C51.5,171.1,45.6,167.7,39.5,164.6z"/>
	<path class="st7" d="M147.5,156.1c-3.8,3-7.7,6-11.5,9c-0.7,0.2-1.3,0.3-2,0.5c-0.3-1.1,0.6-1.5,1.3-2c7.6-5,14.2-11.2,19.8-18.3
		c1.8-2.8,4.1-5.3,5.8-8.2c0.3-0.6,0.8-1.3,1.7-1c0.2,0.4,0.2,0.7-0.1,1c-2.7,5.1-6.1,9.7-10.1,13.8
		C150.8,152.6,149.2,154.3,147.5,156.1z"/>
	<path class="st8" d="M135.5,164.1c-0.7,0.3-1.2,0.8-1.5,1.5c-4.9,3-10,5.7-15.5,7.5c-0.7,0-1.3,0-2,0c-0.1-1.2,1-1.3,1.8-1.6
		c0.9-0.4,1.8-0.6,2.6-1.2c4.7-2.1,9.3-4.1,13.5-7.1c0.6-0.4,1.1-1,2-0.7C137.1,163.4,136,163.6,135.5,164.1z"/>
	<path class="st9" d="M2.5,82.1c0,0.8,0,1.7,0,2.5c-0.1,0.1-0.3,0.2-0.4,0.2C1,92.4,2,99.9,3.3,107.5c0.1,0.2,0.2,0.5,0.2,0.8
		c0,0.9,0.3,1.9-0.2,2.7c-0.2,0.2-0.4,0.3-0.7,0.1c0-0.2,0-0.3,0-0.5c-0.6-1.4-0.6-3-1-4.5c0-0.2,0-0.3,0-0.5
		c-0.6-0.9,0.2-2.1-0.5-3c0-0.3,0-0.7,0-1c-0.7-2,0.2-4-0.5-6c0-0.7,0-1.3,0-2c0.1-6.7,0.8-13.4,2-20c0-0.2,0-0.3,0-0.5
		c0.9-3.9,1.6-7.9,3.5-11.5c-0.3-1.2,1-1.9,1-3c0.6-1,0.4-2.6,2-3C7.8,60.1,5.7,64.4,4.8,69c-0.7,3.5-1.5,7-2.3,10.6
		C2.1,80.4,2.2,81.2,2.5,82.1z"/>
	<path class="st1" d="M11.5,132.6c0.4,2.1,1.6,3.8,2.7,5.5c1.3,2,2.7,3.9,3.8,6c-2.5-2.1-4.2-4.9-5.7-7.7c-2.1-4-4.3-7.9-5.9-12.2
		c-0.4-1.2-1-2.3-0.9-3.6c0.1,0,0.2-0.1,0.3-0.1c0.6,0.2,0.8,0.7,1.2,1.1c0.6,0.9,0.7,2.1,1.4,3C9.4,127.3,10.9,129.7,11.5,132.6z"
		/>
	<path class="st1" d="M2.5,111.1c0.2,0,0.3,0,0.5,0c2.1,1.3,1.3,3.8,2.3,5.6c0.1,0.2,0.2,0.5,0.2,0.7c0.1,1.1,0.9,2.1,0,3.2
		c0,0,0,0,0,0C3.6,117.7,2.9,114.4,2.5,111.1z"/>
	<path class="st1" d="M0.5,95.6c1,1.9,0.2,4,0.5,6C0,99.6,0.8,97.5,0.5,95.6z"/>
	<path class="st1" d="M1.5,106.1c0.6,1.4,1,2.9,1,4.5C1.4,109.2,1.5,107.6,1.5,106.1z"/>
	<path class="st1" d="M1,102.6c0.9,0.9,0.3,2,0.5,3C0.6,104.7,1.2,103.6,1,102.6z"/>
	<path class="st5" d="M14.5,43.6c0.7,0.1,1.1,0.3,0.6,1.1c-1.6,2.6-3.1,5.2-4.6,7.9c-0.3,0-0.4-0.3-0.5-0.5
		C10.9,48.9,12.8,46.3,14.5,43.6z"/>
	<path class="st1" d="M6,61.6c-1.2,3.8-2.3,7.7-3.5,11.5C3,69,3.6,65,6,61.6z"/>
	<path class="st5" d="M9,55.6c-0.7,1-1.3,2-2,3c-0.1-1.7,0.7-3,2-4C9.3,54.9,9.3,55.2,9,55.6L9,55.6z"/>
	<path class="st9" d="M9,55.6c0-0.3,0-0.7,0-1c0.3-0.8,0.7-1.7,1-2.5c0.2,0.2,0.3,0.3,0.5,0.5C10.3,53.7,9.9,54.7,9,55.6z"/>
	<path class="st7" d="M162.5,137.1c0-0.3,0-0.7,0-1c-0.8-1.5,0.5-2.5,1-3.7c0.8-0.7,1.3-1.6,1.5-2.6c0.1-0.6,0.3-1.2,0.8-1.6
		c2.7-5,4.4-10.3,5.8-15.7c0.3-1,0.3-2,0.8-2.8c1.5-7.5,2.2-15,1.9-22.6c0-0.8,0.2-1.7-0.3-2.4c-0.5-3.7-1-7.3-1.5-11
		c-0.3-0.4-0.3-0.8,0.1-1c0.3-0.1,0.5,0.2,0.6,0.6c0.1,0.5-0.1,1,0.3,1.4c1.4,5.6,1.8,11.4,1.8,17.1c0,5.4-0.2,10.9-1.5,16.2
		c-0.2,0.9-0.3,1.8-0.3,2.7c-1.5,6.5-3.5,12.9-6.6,18.9C165.7,132.1,164.7,134.9,162.5,137.1z"/>
	<path class="st9" d="M173.5,74.6c-0.5-0.3-0.5-0.8-0.5-1.2c0-0.2-0.1-0.5-0.4-0.2c-0.1,0.1-0.1,0.3-0.1,0.4
		c-1.4-6.1-3.5-12.1-5.5-18c0.5,0.7,1,1.3,1.5,2c1.7,4.7,3.5,9.4,4.7,14.3C173.5,72.8,173.5,73.6,173.5,74.6z"/>
	<path class="st10" d="M154.7,134.1c-4.5,7.1-10.1,13.2-16.7,18.3c-33.3,0-66.7,0-100,0c-6.6-5.1-12.2-11.2-16.7-18.3
		c1.3-1.3,3-0.9,4.5-0.9c24.7,0,49.5,0,74.2,0c16.8,0,33.6,0,50.5,0C151.9,133.3,153.5,132.9,154.7,134.1z"/>
	<path class="st11" d="M154.7,134.1c-4,0-8-0.1-12-0.1c-39.3,0-78.6,0-117.9,0c-1.2,0-2.3,0-3.5,0.1c-2.8-4.1-5.3-8.3-6.9-13
		c1.2-1.1,2.6-0.8,4-0.8c10.5,0,21.1,0,31.6,0c1.7,0,3.3,0,5-0.2c1.4-0.1,2.3,0.7,3.2,1.5c1.8,1.8,3.6,3.6,5.6,5.6
		c2-2,3.9-3.9,5.8-5.8c0.9-0.9,1.9-1.9,3.3-2c10.1-0.2,20.1-0.2,30.2,0c1.5,0.1,2.5,1.1,3.5,2.1c0.9,0.9,1.9,1.8,2.8,2.8
		c1.4,1.6,2.8,3,5.1,1.9c13.4,0.1,26.8,0,40.2,0.1c1.3,0,3.1-0.7,3.8,1.3C157.3,129.8,156,131.9,154.7,134.1z"/>
	<path class="st12" d="M38,152.4c0.3-1.2,1.3-0.8,2.1-0.8c31.9,0,63.9,0,95.8,0c0.8,0,1.7-0.4,2.1,0.8
		c-10.5,8.7-22.6,14.3-36.1,16.5c-21.6,3.6-41.5-0.7-59.6-13.1C40.8,154.8,39.5,153.5,38,152.4z"/>
	<path class="st13" d="M151.1,41c2.6,2.8,4.6,6.1,6.3,9.5c-0.9,1.4-2.4,1.3-3.8,1.3c-13.3,0-26.7,0-40,0c-15.1,0-30.1,0-45.2,0
		c-15.1,0-30.1,0-45.2,0c-1.6,0-3.4,0.3-4.6-1.3c1.9-3.4,3.6-6.8,6.4-9.6c0.9-0.2,1.8-0.3,2.7-0.3c40.2,0,80.5,0,120.7,0
		C149.3,40.7,150.2,40.8,151.1,41z"/>
	<path class="st14" d="M18.6,50.6c1.3,0.4,2.6,0.5,3.9,0.5c43.8,0,87.5,0,131.3,0c1.3,0,2.5-0.1,3.7-0.5c1.1,1.4,1.8,2.9,2.5,4.5
		c-0.9,1.7-2.6,1.2-4,1.2c-11.4,0-22.8,0-34.2,0c-1.4,0-2.8,0-4.2,0.2c-1.3,0.6-2.2-0.2-3.1-1.1c-2.8-2.5-2.8-2.5-5.2,0.4
		c-1.3,1.5-2.7,2.9-4.2,4.3c-0.7,0.7-1.5,1.3-2.7,0.9c-5.2-0.5-10.4-0.2-15.6-0.2c-4.3,0-8.6-0.3-12.9,0.2c-1.4,0.6-2.2-0.4-3-1.2
		c-2-1.9-3.9-3.8-5.8-5.8c-1.1-1.1-1.9-1-2.9,0.1c-1.7,2-3.4,4.1-5.4,5.9c-0.9,0.8-1.8,1.5-3.1,1.3c-11.9,0.1-23.8,0-35.7,0
		c-1.4,0-2.9,0.1-3.8-1.3C15,56.7,16.7,53.5,18.6,50.6z"/>
	<path class="st15" d="M167,77.1c1.1,6.5,1.5,13.1,0.7,19.7c-1-0.8-0.8-2-0.9-3c-0.1-1.2-0.7-1.8-1.9-1.8c-0.7,0-1.5,0-2.2,0
		c-17.8,0-35.6,0-53.4,0c-1.4,0-2.8,0-4.2,0.3c-1.3,0.4-2.3-0.2-2.9-1.3c-0.7-1.2,0.2-2,0.9-2.8c3.4-3.4,6.8-6.8,10.2-10.2
		c0.8-0.8,1.7-1.4,2.8-1.5c6.4-0.3,12.8-0.1,19.2-0.1c9.3,0,18.6,0,28,0C164.5,76.3,165.9,76,167,77.1z"/>
	<path class="st16" d="M104,92.1c0.6-1.3,1.8-1,2.8-1c19.3,0,38.6,0,57.9-0.1c2.4,0,3.1,0.8,2.8,3c-0.1,0.9,0,1.8,0.1,2.7
		c0,3-0.3,5.9-1.1,8.8c-1.2,0.9-2.7,0.8-4.1,0.8c-12.8,0-25.6,0-38.5,0c-1.5,0-3,0-4.5,0.2c-1.1,0.4-1.9,0.1-2.7-0.7
		c-4.1-4-8.1-8-12.1-12.1C104.3,93.3,103.8,92.8,104,92.1z"/>
	<path class="st17" d="M8.1,89C8,84,8.6,79,9.6,74c0.4-1.9,2-1.7,3.4-1.8c5.2-0.1,10.5,0,15.7,0c9,0,17.9,0.1,26.9-0.1
		c1.2-0.2,2.1,0.4,2.9,1.2c3.7,3.7,7.4,7.3,11.1,11.1c0.7,0.8,1.9,1.6,0.5,2.9c-1.4,0.7-2.9,0.5-4.4,0.5c-17.2,0-34.3,0-51.5,0
		C12,87.8,9.9,87.8,8.1,89z"/>
	<path class="st18" d="M167,77.1c-17.3,0-34.5,0-51.8,0c-0.5-1.2,0.6-1.8,1.2-2.4c2.2-2.3,4.5-4.6,6.9-6.9c1.3-1.2,1.5-2.2,0.1-3.5
		c-0.9-0.9-2.2-1.7-1.3-3.4c1-0.8,2.2-0.7,3.3-0.7c11.8-0.1,23.6,0.1,35.3-0.1c0.6,0,1.2,0,1.7,0.4C164.6,65.9,166.3,71.3,167,77.1z
		"/>
	<path class="st19" d="M48,20.9c9.2-5.5,19-9,29.6-10.2c17.4-2.1,33.9,0.8,49.3,9.4c0.4,0.2,0.8,0.5,1.2,0.8
		c0.2,1.4-0.9,1.6-1.9,1.8c-0.9,0.2-1.8,0.1-2.7,0.1c-23.6,0-47.3,0-70.9,0c-0.9,0-1.8,0.1-2.7-0.1C48.9,22.5,47.8,22.3,48,20.9z"/>
	<path class="st20" d="M48,20.9c0.4,1.2,1.5,1.2,2.5,1.2c25.1,0,50.1,0,75.2,0c1,0,2,0,2.5-1.2c3.9,2.2,7.7,4.6,10.9,7.7
		c-0.6,1-1.6,1.1-2.6,1.2c-0.8,0.1-1.7,0.1-2.5,0.1c-30.6,0-61.2,0-91.8,0c-1.8,0-3.7,0.4-5.1-1.3C40.3,25.4,44,22.9,48,20.9z"/>
	<path class="st21" d="M151.1,41c-1,0.6-2.1,0.5-3.1,0.5c-40,0-79.9,0-119.9,0c-1.1,0-2.2,0.1-3.1-0.6c1.2-1.8,2.7-3.4,4.2-4.9
		c0.6-0.5,1.4-0.5,2.1-0.5c37.6,0.2,75.3,0.1,112.9,0c0.8,0,1.7-0.1,2.4,0.4C148.5,37.4,149.9,39.1,151.1,41z"/>
	<path class="st22" d="M8.1,89c0.4-1.6,1.3-2,3-2c18.7,0.1,37.4,0.1,56.1,0.1c1.2,0,2.3,0.1,3.4-0.5c1.8,0.1,2.6,1.5,3.5,2.8
		c0.5,0.7,0.2,1.5-0.3,2c-1.8,2-3.8,3.9-5.8,5.8c-0.7,0.6-1.4,0.8-2.3,0.3c-15.1-0.3-30.3,0-45.4-0.1c-2.8,0-5.7,0-8.5,0
		c-1.2,0-2.3,0-3.3-0.7l0,0c-0.5-2,0.1-4.1-0.4-6C8.1,90.1,8.1,89.5,8.1,89z"/>
	<path class="st23" d="M118.5,106.6c0.4-1.6,1.7-1,2.7-1c15.1,0,30.2,0,45.3,0c-0.9,4.6-1.9,9.2-4,13.5c-1,0.7-2.2,0.8-3.3,0.8
		c-11.3,0-22.6,0-33.9,0c-1,0-2,0-2.9-0.4c-1.1-0.6-1.1-1.3-0.4-2.2c0.5-0.6,1-1.1,1.5-1.6c1.2-1,1.2-2,0-3.1
		c-1.3-1.2-2.5-2.4-3.7-3.7C119.2,108.2,118.3,107.7,118.5,106.6z"/>
	<path class="st24" d="M146.6,36c-1.4,0.4-2.7,0.5-4.2,0.5c-35.4,0-70.8,0-106.1,0c-2.4,0-4.8,0.2-7.2-0.5c1.5-1.9,3.1-3.6,5-5
		c0.9-0.5,1.9-0.3,2.9-0.3c33.9,0,67.9,0,101.8,0c1,0,2-0.1,2.9,0.3C143.4,32.7,145,34.4,146.6,36z"/>
	<path class="st18" d="M56.6,72.5c-1.1,0.7-2.2,0.5-3.4,0.5c-13.6,0-27.1,0-40.7,0c-1.1,0-2.2-0.1-2.9,1c0.8-4.9,2.2-9.5,4.4-14
		c1.4,0.4,2.7,0.5,4.2,0.5c11.2,0,22.5,0,33.7,0c0.9,0,1.8-0.2,2.7,0.3c0.1,1.7-1.3,2.6-2.4,3.6c-1,1-1,1.7,0,2.7
		c1.1,1,2.1,2.1,3.2,3.2C55.9,70.9,56.8,71.4,56.6,72.5z"/>
	<path class="st16" d="M8.5,96.6c18.7,0,37.4,0,56.1,0c0.8,0,1.8-0.3,1.9,1c-1.9,2.8-4.2,5.3-6.6,7.6c-0.7,0.6-1.5,0.7-2.3,0.4
		c-1.5-0.2-3-0.2-4.5-0.2c-13.2,0-26.4,0-39.6,0c-1.4,0-2.8,0.2-4.1-0.8C8.7,102,8.4,99.3,8.5,96.6z"/>
	<path class="st25" d="M56.2,120.5c-1.4,0.5-2.9,0.6-4.4,0.6c-12.5,0-24.9,0-37.4,0c-1.3-2.5-2.3-5.2-2.9-8c0.5-2,2.2-1.7,3.6-1.8
		c3.5-0.2,7-0.1,10.4-0.1c6.6,0,13.3,0,19.9,0c1.7,0,3.5,0,5.1,0.8c0.5,3.1,3.1,4.8,5,6.9C55.9,119.4,56.3,119.9,56.2,120.5z"/>
	<path class="st26" d="M121.5,118.5c1,0.6,2.1,0.5,3.1,0.5c12.6,0,25.2,0,37.9,0c-1.1,3-2.2,5.9-3.9,8.5c-0.8-0.9-1.9-0.5-2.8-0.5
		c-13,0-25.9,0-38.9,0c-1.2,0-2.3,0.1-3.4-0.5c-0.2-0.8,0.3-1.2,0.8-1.7c1.8-1.9,3.7-3.8,5.6-5.6
		C120.3,118.8,120.7,118.3,121.5,118.5z"/>
	<path class="st27" d="M51,113c-1.3-0.8-2.8-1-4.3-1c-10.5,0-21.1,0-31.6,0c-1.3,0-2.6,0.1-3.7,1.1c-1.2-2.7-2-5.6-2-8.6
		c15.5,0,31.1,0,46.6,0c1,0,2-0.1,2.5,1.1C56.7,108.8,54.5,111.5,51,113z"/>
	<path class="st24" d="M141.9,31.1c-1.1,0.4-2.2,0.5-3.4,0.5c-33.5,0-67.1,0-100.6,0c-1.3,0-2.5-0.1-3.7-0.5c1-0.8,1.9-1.7,2.9-2.5
		c1.3,0.4,2.6,0.5,3.9,0.5c31.4,0,62.8,0,94.1,0c1.3,0,2.6-0.1,3.9-0.5C140.1,29.2,141,30.1,141.9,31.1z"/>
	<path class="st28" d="M162.4,60.6c-1.2,0.4-2.4,0.5-3.7,0.5c-11.4,0-22.7,0-34.1,0c-0.9,0-2.3-0.7-2.7,1c-2.7-1-4.6-2.8-5.5-5.6
		c0.3-1.5,1.6-0.9,2.4-0.9c12.6,0,25.2,0,37.8,0c1.1,0,2.2,0.2,3.1-0.5C161,56.8,161.7,58.7,162.4,60.6z"/>
	<path class="st29" d="M121,170.6c-1,1.7-3.4,1-4.5,2.5h0c-5.3,1.6-10.6,3.1-16.1,3.9c-11.5,1.6-22.8,1-34-1.8
		c-2.3-0.6-4.5-1.6-6.9-2.1c-0.3-0.2-0.7-0.3-1-0.5c-6.3-2.5-12.6-4.9-17.7-9.5c0.1-0.4,0.2-0.7,0.7-0.6c6.8,3.9,13.7,7.5,21.2,9.7
		c6.1,1.8,12.2,2.8,18.5,3.4c13.2,1.3,25.9-1,38.2-5.6C120,170.4,120.7,170,121,170.6z"/>
	<path class="st29" d="M121,170.6c-0.5,0-1.1,0.1-1.5-0.5c8.1-3.3,15.6-7.6,22.5-13c1.2,0.1,0.4,0.8,0.4,1.2
		c-1.8,1.7-3.5,3.4-5.9,4.3c-2.5,0.8-4.1,3-6.5,4C127,167.8,124.3,169.7,121,170.6z"/>
	<path class="st30" d="M166,128.6c-0.6,0.4-0.5,1-0.5,1.5c-0.6,0.8-0.9,1.7-1.5,2.5c-1,0.9-1.1,2.3-1.5,3.5c-2.3,3.2-4.7,6.3-7,9.5
		c-0.1,0.2-0.3,0.2-0.5,0.1c-0.4-0.3-0.2-0.8-0.4-1.1c4.6-5.7,8.5-11.8,11.5-18.5C167,126.8,167,126.8,166,128.6z"/>
	<path class="st29" d="M41.6,162.5c-0.2,0.2-0.3,0.3-0.5,0.5c-1.2,0.6-1.6-0.7-2.5-1c-4.8-3.4-9.3-7-13-11.5c-0.3-0.3-0.3-0.7,0-1
		C30.7,154.1,35.9,158.6,41.6,162.5z"/>
	<path class="st6" d="M3,108.1c-1.3-2.6-1.2-5.4-1.4-8.2C1.2,94.5,0.7,89,1.8,83.7c0,0,0.2,0,0.2,0.1C2,84.1,2,84.3,2,84.6
		c0.4,1.2,0.4,2.3,0,3.5c-0.2,5.9,0.6,11.7,1.5,17.5C2.8,106.3,3.8,107.3,3,108.1z"/>
	<path class="st31" d="M25.5,149.5c0,0.3,0,0.7,0,1c-4.8-3.8-7.7-9-11-14c-0.4-0.6-0.3-1,0.5-1c2.8,4.2,5.7,8.3,9.2,12
		C24.8,148.1,25.1,148.9,25.5,149.5z"/>
	<path class="st32" d="M166,128.6c-0.1-0.8,1.1-1.7,0-2.5c2.5-5.8,4.9-11.7,6-18c1.3,0.4,0.7,1.2,0.5,2c-1.1,4.9-2.3,9.8-4.5,14.4
		C167.5,125.9,167.4,127.5,166,128.6z"/>
	<path class="st8" d="M15,135.6c-0.4,0.2-0.5,0.6-0.5,1c-1-1.3-2-2.7-3-4c-1.8-2.4-2.6-5.2-3.5-8c-0.3-0.8-0.9-1.6,0.5-2
		C10.3,127.1,12.7,131.3,15,135.6z"/>
	<path class="st33" d="M172.5,110.1c-0.1-0.7,0.2-1.5-0.5-2c1.6-7.8,2.3-15.6,2-23.5c0.1,0.1,0.3,0.2,0.3,0.4
		C174.7,93.4,174.9,101.8,172.5,110.1z"/>
	<path class="st34" d="M154.5,144.6c0.4,0.2,0.5,0.6,0.5,1c-1.9,3.2-4.7,5.5-7.2,8.2c-1.2,1.2-2.5,2.4-3.8,3.5
		c-0.6,0.5-0.9,1.5-2,0.8c0-0.3,0.6-0.7,0-1C146.5,153.2,150.8,149.1,154.5,144.6z"/>
	<path class="st35" d="M8.5,122.6c-0.7,0.5-0.4,1.3-0.5,2c-1.4-0.6-0.8-2.1-1.5-3c-0.6-1.5-0.9-3-1.5-4.5l0,0c-0.8-3-1.5-6-2-9
		c0,0,0,0,0,0c0.1-0.8-0.3-1.8,0.5-2.5C4.4,111.4,6.3,117.1,8.5,122.6z"/>
	<path class="st17" d="M8.1,90.6c0.8,2,0.3,4,0.4,6C7.8,94.6,8.1,92.6,8.1,90.6z"/>
	<path class="st9" d="M165,52.1c1.6,0.6,1.8,2,2,3.5C166,54.6,165.7,53.2,165,52.1z"/>
	<path class="st6" d="M2.5,82.1c-0.8-0.9-0.5-2-0.3-3c0,0,0.2,0,0.2,0c0.1,0.1,0.1,0.3,0.2,0.5C2.5,80.4,2.5,81.2,2.5,82.1z"/>
	<path class="st1" d="M2,88.1c0-1.2,0-2.3,0-3.5c0.2,0,0.3,0,0.5,0C2.3,85.7,3,87,2,88.1z"/>
	<path class="st8" d="M59.5,173.1c1.5-0.2,2.7,0.5,4.1,0.9c5.4,1.6,10.9,2.6,16.5,3.1c2.9,0.3,5.8,0.5,8.7,0.4
		c8.6-0.2,17.1-1.2,25.3-4.2c0.7-0.3,1.6-0.2,2.4-0.3c-4.6,2.1-9.6,3.1-14.5,4c-6.6,1.2-13.2,1.3-19.9,0.9
		C74.4,177.5,66.7,176.3,59.5,173.1z"/>
	<path class="st36" d="M38.5,162.1c0.8,0.3,1.7,0.7,2.5,1c4.2,3.3,8.9,5.5,13.8,7.7c1.3,0.6,2.5,1.2,3.7,1.8
		c-3.4-0.2-6.3-2.1-9.2-3.6C45.5,167,41.6,165.2,38.5,162.1z"/>
	<path class="st8" d="M142,158.1c2.8-1.2,4.6-3.7,6.7-5.7c2.2-2.2,4.5-4.3,6.3-6.8c0.2,0,0.3,0,0.5,0c-1.8,3.2-4.6,5.7-7.1,8.2
		c-3.6,3.6-7.6,6.8-11.8,9.8c-0.3,0.2-0.8,0.3-1.1,0.4c0.3-0.5,0.7-1,1-1.5C138.4,161.1,140.2,159.6,142,158.1z"/>
	<path class="st6" d="M3,108.1c1,2.9,1.7,5.9,2,9c-1.4-1.8-0.9-4.2-2-6C3,110.1,3,109.1,3,108.1z"/>
	<path class="st6" d="M5,117.1c1.1,1.3,1.5,2.8,1.5,4.5c-0.3-0.3-0.7-0.7-1-1C5.4,119.4,5.2,118.2,5,117.1z"/>
	<path class="st32" d="M164,132.6c0.2-1,0.5-2,1.5-2.5C165.4,131.1,165,132,164,132.6z"/>
	<path class="st0" d="M116.5,56.5c1.8,1.9,3.7,3.7,5.5,5.6c0,0.1,0,0.2,0.1,0.2c1.2,1.3,3.3,2.6,3.3,3.8c-0.1,1.7-2.3,2.8-3.6,4.2
		c-2.2,2.3-4.4,4.5-6.6,6.8c-4.1,4-8.2,8-12.2,12c-1.8,1.8,0.7,2,1.1,2.9c4.8,4.8,9.7,9.7,14.5,14.5c2.1,2.1,4.1,4.3,6.2,6.4
		c0.8,0.8,0.9,1.4,0,2.2c-1.1,1.1-2.2,2.3-3.2,3.4c-2.8,2.5-5.5,5.2-8,8c-0.6,0.4-1.1,0.9-1.9,1.5c-2.5-2.7-5-5.3-7.5-8
		c-1.2-0.5-2.1-1.4-2.9-2.3c-3.6-3.7-7.3-7.3-10.9-10.9c-2.2-2.2-2.2-2.2-4.3-0.1c-3.7,3.6-7.3,7.3-10.9,10.9
		c-0.9,0.9-1.8,1.7-2.9,2.4c-2.2,2.1-4.5,4.2-6.5,6.4c-1.2,1.3-1.9,1.6-3.2,0.1c-1.9-2.2-4.1-4.1-6.2-6.1c-1.7-1.8-3.2-3.7-5.1-5.2
		c-1.3-1-1.1-1.5,0-2.3c2.9-2.1,5.2-4.8,7.6-7.3c3.1-2.3,5-5.8,7.9-8.2c2.7-1.9,4.7-4.5,7.1-6.7c0.7-0.7,0.3-1.1-0.2-1.6
		c-1-0.9-1.9-1.8-2.9-2.7c-4.5-4.8-9.2-9.5-14-14c-1.8-1.9-3.6-3.8-5.5-5.6c-1.1-1-1-1.6,0.1-2.5c1.2-1.1,2.3-2.4,3.4-3.6
		c2.9-2.2,5.1-5.1,7.6-7.7c1-1.1,1.6-1.2,2.7,0c2.7,2.7,5.1,5.6,8.2,7.9c1.9,0.9,3,2.6,4.4,3.9c3,2.9,5.9,5.8,8.8,8.8
		c1.3,1.3,2.2,1.3,3.5,0c3.6-3.7,7.3-7.3,10.9-10.9c0.7-0.7,1.3-1.6,2.4-1.6c2.2-2.1,4.5-4.1,6.3-6.6c1.8-2.6,2.4-2.5,4.8-0.3
		C115,55.1,115.8,55.8,116.5,56.5z"/>
	<path class="st23" d="M72.1,120.1c5-5.1,10.1-10.2,15.1-15.3c0.6-0.7,1.1-0.8,1.8-0.1c5,5.1,10,10.2,15.1,15.3
		C93.4,120,82.8,120.1,72.1,120.1z"/>
	<path class="st37" d="M103.1,61.2c-4.7,4.7-9.3,9.4-13.9,14.2c-0.8,0.8-1.2,0.7-2,0c-4.7-4.8-9.4-9.6-14.1-14.3
		c0.2-1.2,1.2-0.9,2-0.9c8.7,0,17.3,0,26,0C101.9,60.1,102.9,59.8,103.1,61.2z"/>
</g>
</svg>
