<?xml version="1.0" encoding="utf-8"?>
<!-- Generator: Adobe Illustrator 19.0.0, SVG Export Plug-In . SVG Version: 6.00 Build 0)  -->
<svg version="1.1" id="Layer_1" xmlns="http://www.w3.org/2000/svg" xmlns:xlink="http://www.w3.org/1999/xlink" x="0px" y="0px"
	 viewBox="0 0 312 312" style="enable-background:new 0 0 312 312;" xml:space="preserve">
<style type="text/css">
	.st0{fill:#717E88;}
	.st1{fill:#6A767F;}
	.st2{fill:#FFFFFF;}
</style>
<g>
	<path class="st0" d="M2,180.5c-0.2-0.6-0.6-1.1-0.7-1.8c-1.4-13.1-1.8-26.1-0.6-39.2c0.7-7.7,1.8-15.2,3.8-22.6
		C8.9,101.2,15.4,86.5,24,72.7c4.4-7.1,9.5-13.5,14.9-19.9c7.5-8.8,16.2-16.3,25.4-23.3c5.7-4.3,12-7.9,18.3-11.3
		c12.1-6.4,24.6-11.5,37.9-14.6c4.8-1.1,9.7-1.7,14.6-2.5c8.6-1.3,17.2-1.3,25.8-1.1c21.7,0.4,42.4,5.3,61.9,15
		c9.2,4.5,18.2,9.4,26.3,15.7c8,6.1,15.6,12.7,22.2,20.3c3.3,3.9,6.8,7.6,9.9,11.7c9.7,13.2,17.1,27.7,22.7,43.1
		c3.9,10.7,6,21.8,7.2,33.2c0.9,9,0.9,17.9,0.6,26.8c-0.1,4-0.7,8-1.1,11.9c-0.1,0.6-0.5,1.2-0.7,1.7c-3.3-1.3-6.7-1.9-10.2-1.9
		c-20,0.1-40,0-60,0c-75.8,0-151.7,0-227.5,0C8.6,177.6,5.1,178.1,2,180.5z M155.8,174.9c22.7,0,45.4,0,68.1,0c1.4,0,2.9,0,4.3-0.1
		c0.9,0,1.5-0.6,1.5-1.5c0.1-1.3,0.1-2.6,0.1-3.8c0-9.8,0-19.5,0-29.3c0-5.4,0.2-5.1-5.3-5.1c-45.9,0-91.7,0-137.6,0
		c-1.1,0-2.2,0-3.4,0.1c-0.9,0.1-1.5,0.6-1.5,1.5c-0.1,1.1-0.1,2.2-0.1,3.4c0,9.9,0,19.8,0,29.7c0,5.4-0.3,5.1,5.3,5.1
		C110.1,174.9,132.9,174.9,155.8,174.9z"/>
	<path class="st1" d="M2,180.5c3-2.4,6.6-2.9,10.3-2.9c75.8,0,151.7,0,227.5,0c20,0,40,0,60,0c3.6,0,7,0.6,10.2,1.9
		c0.2,1.3,0.1,2.6-0.4,3.8c-1.7,0.9-1.8,1.2-0.6,2.9c0.2,1,0.1,2-0.4,2.9c-1.5,0.6-1.5,0.8-0.6,1.9c-0.1,0.6-0.2,1.3-0.3,1.9
		c-1.5,0.6-1.6,0.8-0.6,1.9c-0.1,0.6-0.3,1.3-0.4,1.9c-0.8,0.2-1.2,0.8-1.5,1.6c-1.1,3.4-2.3,6.8-3.3,10.1c-0.2,0.7-0.2,1.5-0.2,2.3
		c0.2,1.2-0.3,2.2-0.8,3.2c-5.3,12.7-11.7,24.9-20.2,35.8c-6.2,8.1-13.3,15.5-20.8,22.5c-17.1,15.6-37,26.1-58.8,33.3
		c-9.3,3.1-18.9,4.6-28.6,5.6c-7.5,0.8-15,0.9-22.5,0.7c-18.6-0.5-36.4-4.1-53.5-11.6c-11.8-5.1-23.1-11.1-33.3-18.8
		c-8.4-6.4-16.2-13.5-23.3-21.3c-7-7.7-13.2-16.1-18.4-25.1C15.2,224.3,10.1,213,6.4,201c-0.2-0.7-0.3-1.6-0.4-2.3
		c0.9-1.2,0.8-1.3-0.7-1.9c-0.6-1.9-1.5-3.7-1.3-5.7c1-1.1,1-1.3-0.5-1.9c-0.4-0.9-0.6-1.9-0.4-2.9c1.2-1.7,1.1-2-0.7-2.9
		C1.9,182.4,1.8,181.5,2,180.5z"/>
	<path class="st0" d="M301.7,210.8c0.1-0.8,0-1.6,0.2-2.3c1.1-3.4,2.3-6.8,3.3-10.1c0.3-0.8,0.7-1.4,1.5-1.6
		c-0.6,4.6-2.6,8.7-4.1,13C302.5,210.2,302,210.5,301.7,210.8z"/>
	<path class="st0" d="M2.3,183.4c1.8,0.9,1.9,1.2,0.7,2.9C2.2,185.4,2.1,184.5,2.3,183.4z"/>
	<path class="st0" d="M309.1,186.2c-1.2-1.6-1.1-1.9,0.6-2.9C310,184.4,309.8,185.4,309.1,186.2z"/>
	<path class="st0" d="M3.4,189.1c1.5,0.7,1.5,0.8,0.5,1.9C3.3,190.5,3.1,189.9,3.4,189.1z"/>
	<path class="st0" d="M308.1,191c-0.9-1.1-0.9-1.3,0.6-1.9C309,189.9,308.8,190.6,308.1,191z"/>
	<path class="st0" d="M307.2,194.9c-0.9-1.2-0.9-1.3,0.6-1.9C308,193.8,307.8,194.4,307.2,194.9z"/>
	<path class="st0" d="M5.2,196.8c1.5,0.6,1.6,0.7,0.7,1.9C5.3,198.2,5.1,197.6,5.2,196.8z"/>
	<path class="st2" d="M155.8,174.9c-22.9,0-45.7,0-68.6,0c-5.6,0-5.3,0.3-5.3-5.1c0-9.9,0-19.8,0-29.7c0-1.1,0-2.2,0.1-3.4
		c0.1-0.9,0.7-1.4,1.5-1.5c1.1-0.1,2.2-0.1,3.4-0.1c45.9,0,91.7,0,137.6,0c5.5,0,5.3-0.2,5.3,5.1c0,9.8,0,19.5,0,29.3
		c0,1.3,0,2.6-0.1,3.8c-0.1,0.9-0.6,1.4-1.5,1.5c-1.4,0.1-2.9,0.1-4.3,0.1C201.2,174.9,178.5,174.9,155.8,174.9z"/>
</g>
</svg>
