<?xml version="1.0" encoding="utf-8"?>
<!-- Generator: Adobe Illustrator 19.0.0, SVG Export Plug-In . SVG Version: 6.00 Build 0)  -->
<svg version="1.1" id="Layer_1" xmlns="http://www.w3.org/2000/svg" xmlns:xlink="http://www.w3.org/1999/xlink" x="0px" y="0px"
	 viewBox="0 0 178.1 184.1" style="enable-background:new 0 0 178.1 184.1;" xml:space="preserve">
<style type="text/css">
	.st0{fill:#FEFEFE;}
	.st1{fill:#FAFAFA;}
	.st2{fill:#F7F7F7;}
	.st3{fill:#F9F9F9;}
	.st4{fill:#F6F6F6;}
	.st5{fill:#F0F0F0;}
	.st6{fill:#F1F1F1;}
	.st7{fill:#EEEEEE;}
	.st8{fill:#E8E8E8;}
	.st9{fill:#F3F3F3;}
	.st10{fill:#159A0E;}
	.st11{fill:#18A90F;}
	.st12{fill:#15960D;}
	.st13{fill:#17A70F;}
	.st14{fill:#18AC0F;}
	.st15{fill:#17A20E;}
	.st16{fill:#169E0E;}
	.st17{fill:#17A50F;}
	.st18{fill:#17A10E;}
	.st19{fill:#17A40F;}
	.st20{fill:#DEDEDE;}
	.st21{fill:#E0E0E0;}
	.st22{fill:#ECECEC;}
	.st23{fill:#E6E6E6;}
	.st24{fill:#DFDFDF;}
	.st25{fill:#E7E7E7;}
	.st26{fill:#E9E9E9;}
	.st27{fill:#E2E2E2;}
	.st28{fill:#F2F2F2;}
	.st29{fill:#17A00F;}
</style>
<g>
	<path class="st0" d="M78,184c-25.4,0-50.8,0-76.2,0c-1.4,0-1.8-0.1-1.8-1.7C0.1,122.1,0.1,61.9,0,1.7C0,0.3,0.3,0,1.7,0
		c58.2,0,116.4,0,174.7,0c1.6,0,1.7,0.5,1.7,1.8c0,27.7,0,55.5,0,83.2c-1.8-0.5-1.3-2.2-1.5-3.3c-1-4.4-1.8-8.8-3-13.1
		c-0.3-1-0.6-1.9-1.1-2.8c-1.8-5.2-4.7-9.9-6.9-14.9c-0.6-1.1-1.3-2.2-2.1-3.1c-0.2-0.2-0.3-0.4-0.4-0.6c-2.6-4.7-6-8.7-10-12.4
		c-2.6-2.4-4.8-5.3-7.7-7.4c-6.9-5-14.2-9.5-22.1-12.9c-8.3-3.5-16.9-5.7-25.8-6.3C85.1,7.6,73,8.5,61.6,12.9
		c-7.1,2.7-13.8,6-20.2,10.2c-8.1,5.3-14.9,11.7-20.9,19.1c-1.3,1.6-2.2,3.3-3.2,5c-0.1,0.2-0.3,0.4-0.4,0.6c-0.8,0.9-1.5,1.9-2.1,3
		c-0.7,0.9-0.9,2.1-1.6,3c-1.4,2.2-2.5,4.6-3.4,7c-10.4,23.5-10.3,47,0,70.5c0.9,2.5,2.1,4.8,3.4,7.1c0.8,1.8,2,3.4,3.1,5
		c1.1,1.7,2.2,3.3,3.1,5c3.6,5,7.7,9.5,12.4,13.5c3.5,2.9,6.8,6.1,10.7,8.4c1.2,0.7,2.5,1.3,3.8,1.9c3.9,2,7.9,3.8,11.9,5.6
		c3.3,1.5,6.7,2.5,10.2,3.1c0.2,0,0.5,0.1,0.7,0.2c1.2,0.4,2.4,0.8,3.7,0.8c0.3,0,0.7,0.1,1,0.2c0.8,0.3,1.6,0.6,2.4,0.6
		c0.2,0,0.4,0.1,0.6,0.1C77.4,183.2,78.2,183.1,78,184z"/>
	<path class="st0" d="M178,110.5c0,23.9,0,47.8,0,71.6c0,1.6-0.4,1.9-1.9,1.9c-23.9-0.1-47.8,0-71.6,0c0-1.4,1.1-1.1,2-1.3
		c8.6-2.1,16.9-4.8,24.8-8.9c12-6.4,22-15.2,30-26.1c7.7-10.5,12.5-22.2,15.4-34.9C176.9,111.9,176.6,110.6,178,110.5z"/>
	<path class="st1" d="M178,110.5c-0.9,3.2-1.9,6.3-2.7,9.5c-2,7.8-5.4,15-9.5,21.8c-6.3,10.5-14.5,19.2-24.5,26.3
		c-9.3,6.6-19.4,11.3-30.4,14c-2.1,0.5-4.5,0.5-6.4,1.9c-2.7,0-5.3,0-8,0c0.3-1.4,1.4-1.1,2.3-1.2c9.4-1,18.4-3.3,26.9-7.4
		c0.4-0.2,0.7-0.5,1.1-0.7c1.1-0.7,2.3-1.2,3.4-2.1c0.4-0.3,0.8-0.5,1.3-0.6c4.2-1.6,7.6-4.4,11.1-7c8.1-6,14.6-13.5,20.3-21.7
		c0.3-0.5,0.5-1,0.8-1.6c2.1-3,3.4-6.4,5.2-9.5c0.6-0.5,1-1.1,1-1.9c0.1-0.6,0.3-1.1,0.7-1.5c0.5-0.6,0.8-1.3,0.9-2.1
		c0.1-0.2,0.2-0.5,0.3-0.7c1.7-3.6,2.6-7.4,3.2-11.4c0.1-0.3,0.1-0.5,0.2-0.8c0.9-2.9,1.2-5.9,1.6-8.9c0.1-1-0.4-2.2,1.2-2.5
		C178,105.2,178,107.9,178,110.5z"/>
	<path class="st2" d="M127.5,175.1c-5.4,3.3-11.3,5.1-17.5,6.6c-4.5,1.1-9,1.5-13.5,2.4c-2.7,0-5.3,0-8,0c-3-0.7-6.1,0.1-9.1-0.5
		c-1-0.2-2-0.2-2.9-0.5h0c-0.8-0.4-1.7,0-2.5-0.5c-0.3,0-0.7,0-1,0c-1.3-0.6-2.7-0.6-4-1h-0.2l-0.2,0c-0.6-0.4-0.8-0.9-0.1-1.3
		c0.6-0.3,1.3-0.3,1.9-0.1c8.1,2.4,16.4,2.5,24.7,2.2c6.6-0.2,13-1.4,19.2-3.6c0.5-0.4,1.1-0.7,1.8-0.7c1.4,0.4,2.4-0.5,3.6-0.9
		c2.4-0.5,4.5-1.9,6.8-2.5C126.9,174.6,127.3,174.7,127.5,175.1z"/>
	<path class="st2" d="M178,102.5c-0.5,3.2-1,6.4-1.5,9.6c-0.1,0.9-0.3,1.8-1,2.4c-0.9-0.9-0.6-2-0.3-3c1.1-5.1,1.5-10.4,1.4-15.5
		c0-5.7-0.3-11.4-1.8-17c0.1-3.3-1.5-6.3-2.1-9.4c-0.2-1-0.7-1.9-0.7-2.9c0-0.4,0.2-0.8,0.5-1.1c1.7,1.8,1.9,4.1,2.5,6.3
		c1.1,4.4,1.6,8.9,3,13.2C178,90.9,178,96.7,178,102.5z"/>
	<path class="st2" d="M76.5,183c4,0.3,8,0.2,12,1c-3.5,0-7,0-10.5,0C77.5,183.7,77,183.4,76.5,183z"/>
	<path class="st3" d="M16.5,47.5c3.6-7.1,9.1-12.5,14.9-17.8c3.5-3.2,7.4-5.6,11.2-8.2c4.5-3.1,9.5-5.3,14.5-7.5
		c6.7-2.9,13.7-4.7,20.8-5.7c5.2-0.8,10.5-0.8,15.7-0.5c3.3,0.2,6.5,0.3,9.8,0.8c7.2,1.1,14,3.1,20.7,6c7.7,3.3,14.6,7.6,21.3,12.5
		c2.3,1.7,4.4,3.8,6.3,5.9c2.7,2.9,5.7,5.5,8.1,8.7c1.5,1.9,2.6,3.9,3.6,5.9c0.6,3,2.9,5.3,4,8.1c0.6,1.3,1.2,2.5,1.9,3.7
		c0.1,0.2,0.2,0.4,0.3,0.7c2.4,5.7,4,11.7,5.3,17.8c0.6,3.6,1,7.3,1.5,10.9c0.3,6.9,0.1,13.7-1.2,20.4c-0.8,5.6-2.5,11-4.5,16.3
		c-0.6,1.2-1,2.6-1.7,3.8c-2.5,5.2-5.2,10.3-8.6,15c-2.2,3.3-4.9,6.2-7.5,9.2c-5.4,5.8-11.5,10.5-18.2,14.7
		c-29.9,16.8-59.7,16.9-89.6,0c-7.5-4.7-14.3-10.3-20.2-16.8c-5.1-6.3-9.6-12.9-13.3-20.2c-0.3-0.7-0.7-1.3-0.9-2
		c-1.5-3.7-3-7.4-4-11.3c-2.4-9-3.9-18.1-3.3-27.5c0.6-1.5,0.3-3,0.3-4.6c0-0.7,0-1.4,0.2-2C5,78.8,5.7,74,7.1,69.3
		c1.5-5,3.4-9.9,5.8-14.5C14,52.3,16.1,50.3,16.5,47.5z"/>
	<path class="st3" d="M9.5,131.6c-2.2-3.8-3.7-7.8-4.8-12.1c-1.3-5.3-2.5-10.6-3.1-16c-0.4-3.4-0.4-6.9,0.1-10.3
		c0.2-1.8-0.3-3.5,0-5.4c0.6-3.3,0.8-6.8,1.7-10c1.6-5.8,2.4-12,6.1-17.1c0.1,0.1,0.2,0.2,0.3,0.3c-0.2,3.4-2,6.2-2.9,9.4
		c-1.4,5.1-2.5,10.3-3.2,15.6c-0.4,3.5-0.5,6.9-0.5,10.4c0,11,1.9,21.6,6.2,31.8c0.4,1,1,2,0.5,3.1C9.7,131.3,9.6,131.4,9.5,131.6z"
		/>
	<path class="st1" d="M46,172.6c-4.7-1.3-8.1-4.7-11.7-7.6c-5.4-4.4-10.3-9.4-14.5-14.9c-0.4-0.5-0.8-0.9-0.7-1.5
		c0.5-0.3,0.9-0.1,1.4,0.1c3.1,2.7,5.3,6.1,8.2,8.9c4.9,4.6,9.9,9,15.8,12.4c0.8,0.4,1.6,0.9,1.8,1.9
		C46.3,172.1,46.2,172.4,46,172.6z"/>
	<path class="st2" d="M46,172.6c0-0.2,0-0.3,0-0.5c0.2-0.4,0.4-0.6,0.8-0.7c0.2,0,0.5,0.1,0.7,0.2c5.6,3.5,11.8,5.6,17.9,8
		c0.7,0.4,1.6,0.3,2.3,0.7c0.1,0.1,0.2,0.2,0.2,0.3c0.2,0.3,0.3,0.7,0.5,1c-7.4-0.9-13.8-4.7-20.4-7.8C47.4,173.5,46.7,173,46,172.6
		z"/>
	<path class="st4" d="M167,56c-1.3-2.4-2.6-4.8-4-7.2c-0.4-0.7-0.6-1.2,0.5-1.3c0,0,0,0,0,0c0.6,1,1.2,2.1,2,3
		c2.2,3.8,4.3,7.7,6,11.7c0.4,1,1.2,2,1,3.3c0,0.3,0,0.7,0,1c-1.1,0.1-0.9-0.8-1.1-1.3c-0.7-1.9-1.6-3.8-2.4-5.7l0,0
		C168.5,58.3,168.3,56.9,167,56z"/>
	<path class="st4" d="M16.5,47.5c0.7,0.1,1.1,0.3,0.6,1.1c-1.2,1.9-2.4,3.9-3.6,5.9c-0.2,0.2-0.4,0.2-0.6,0c-0.2-0.4-0.2-0.7,0.1-1
		c0.4-1.1,0.3-2.4,1.5-3C15.3,49.6,15.9,48.6,16.5,47.5L16.5,47.5z"/>
	<path class="st3" d="M13,138.6c-1.9-1.9-2.9-4.4-3.5-7c0,0,0,0,0,0c1-0.3,1.3,0.5,1.6,1.1c0.8,1.8,2.4,3.4,2.2,5.6
		C13.2,138.4,13.1,138.5,13,138.6z"/>
	<path class="st3" d="M13,53.5c0,0.3,0,0.7,0,1c-0.5,2-1.8,3.7-2.5,5.6c-0.1,0.4-0.6,0.6-1,0.4c0,0,0,0,0,0
		C10.2,57.9,11.1,55.5,13,53.5z"/>
	<path class="st3" d="M20,149c-0.3-0.2-0.7-0.3-1-0.5c-1-1.6-2.4-3.1-3-5c0.1,0,0.2-0.1,0.3-0.1c0.4,0,0.7,0.2,1,0.5
		C18.3,145.6,20.6,146.6,20,149z"/>
	<path class="st3" d="M16,143.6c-1.5-1.4-2.7-2.9-3-5c0,0,0,0,0,0C15.2,139.4,16.5,141.4,16,143.6L16,143.6z"/>
	<path class="st3" d="M16.5,47.5c-0.2,1.3-0.8,2.4-2,3C14.9,49.3,15.5,48.3,16.5,47.5z"/>
	<path class="st3" d="M165.5,50.5c-1.2-0.6-1.8-1.7-2-3C164.6,48.3,165.2,49.3,165.5,50.5z"/>
	<path class="st2" d="M69,181.5c1.4,0,2.8,0,4,1C71.6,182.6,70.3,182.3,69,181.5z"/>
	<path class="st2" d="M74,182.5c0.8,0.1,1.8-0.3,2.5,0.5C75.6,183.5,74.8,183.2,74,182.5z"/>
	<path class="st5" d="M176,88.5c-0.5-3.7-1-7.3-1.5-11c-0.3-0.4-0.3-0.8,0.1-1c0.3-0.1,0.5,0.2,0.6,0.6c0.1,0.5-0.1,1,0.3,1.4
		c1.4,5.6,1.8,11.4,1.8,17.1c0,5.4-0.2,10.9-1.5,16.2c-0.2,0.9-0.3,1.8-0.3,2.7h0c-0.6,4.2-1.9,8.1-3.5,12c0,0.2,0,0.3,0,0.5
		c-0.5,0.6-0.5,1.4-1,2c-0.2,0.5-0.3,1-0.5,1.5c-0.4,0.6-0.5,1.4-1,2c-2.1,3-2.7,6.9-5.5,9.5c-0.5,0.5-0.2,1.9-1.6,1.5
		c-0.5-1.1,0.2-1.9,0.7-2.7c1.8-2.6,3.1-5.4,4.3-8.3c0.5-0.5,1-1.1,1.1-2c0-0.2,0.1-0.4,0.2-0.6c0.3-0.6,0.7-1.3,1-1.9
		c2.1-5.5,3.7-11.1,5-16.8c1.2-6.8,1.6-13.6,1.5-20.4C176.3,90,176.5,89.2,176,88.5z"/>
	<path class="st6" d="M162.5,143.5c0.5-0.5,1-1,1.5-1.5c-0.6,3-2.9,4.9-4.6,7.2c-6,8.1-13.4,14.7-21.7,20.2
		c-1.8,1.2-3.5,3.3-6.2,3.1c-0.2-1.4,1-1.5,1.8-2c2.2-1.4,4.5-2.4,6.4-4.2c3.2-2.6,6.5-5.2,9.5-8c4-3.8,7.5-8,10.7-12.4
		c0.1-0.2,0.3-0.4,0.4-0.5C161.1,144.7,161.3,143.5,162.5,143.5z"/>
	<path class="st7" d="M140,166.5c-1.6,2.2-4.2,3-6.4,4.4c-0.7,0.5-1.7,0.6-2.1,1.6c-0.3,0.2-0.7,0.3-1,0.5c-1.2,0.8-2.6,1.4-4,2
		c-2.3,1-4.4,2.5-7,2.5c0-0.1-0.1-0.2-0.1-0.3c1-1.7,3.1-1.5,4.4-2.6c5.2-2.5,10.2-5.4,15.1-8.4C139.4,166.2,139.8,166.2,140,166.5z
		"/>
	<path class="st2" d="M172,126.5c-0.1-2.2,1.3-4.1,1.8-6.1c0.5-2,1.1-3.9,1.7-5.9C175.2,118.8,174.5,122.9,172,126.5z"/>
	<path class="st6" d="M126.5,175c1.2-1,2.5-1.6,4-2c-0.6,1.2-2,1.3-3,2C127.2,175,126.9,175,126.5,175z"/>
	<path class="st2" d="M171,129c0-0.9,0.1-1.6,1-2C172.1,127.9,172,128.7,171,129z"/>
	<path class="st2" d="M169.5,132.5c0.1-0.8,0.4-1.5,1-2C170.6,131.4,170.5,132.2,169.5,132.5z"/>
	<path class="st8" d="M116.5,178.5c-0.5,0-1.1-0.1-1.5,0.5c-10.4,3.3-21.2,4-32.1,3.4c-5.9-0.3-11.6-1.9-17.4-2.9
		c-6.4-2.1-12.7-4.6-18.5-8h0c-7.8-4.2-14.4-9.8-20.6-16.1c-0.6-0.6-1.4-1.2-1.1-2.3c0.2-0.2,0.4-0.3,0.7-0.2
		c3.6,2.9,6.7,6.4,10.4,9.2c2.8,2.1,5.6,4.1,8.6,5.9c10,6.1,20.7,10,32.3,11.8c12.1,1.9,24,0.9,35.8-2.2c1.2-0.2,2.4-0.7,3.7-0.6
		c0.2,0.1,0.5,0.2,0.6,0.3C117.9,178.4,116.9,178.2,116.5,178.5z"/>
	<path class="st7" d="M65,179c2.2-0.2,4.2,0.7,6.3,1.2c9.4,2.2,18.8,2,28.4,1.5c5.3-0.3,10.1-2.4,15.3-2.7c-3.3,1.9-7,2.2-10.6,2.9
		c-6.8,1.4-13.7,1.3-20.5,1c-4.3-0.2-8.7-0.7-12.9-2c-1-0.3-1.9-0.4-2.9-0.4v0c-0.6-0.5-1.3-0.1-2-0.3C65.8,179.7,64.8,179.9,65,179
		z"/>
	<path class="st7" d="M116.5,178.5c0.3-0.3,0.7-0.7,1-1c0.7-0.6,1.3-0.6,2,0c0,0,0,0,0,0C118.7,178.3,117.8,179.1,116.5,178.5z"/>
	<path class="st9" d="M175.5,78.5c-0.5-0.3-0.5-0.8-0.5-1.2c0-0.2-0.1-0.5-0.4-0.2c-0.1,0.1-0.1,0.3-0.1,0.4
		c-1.4-6.1-3.5-12.1-5.5-18c1.8,2,2.2,4.7,3.5,7C173.6,70.5,175.3,74.4,175.5,78.5z"/>
	<path class="st10" d="M34.1,151c-7.8-7.3-13.6-16-17.7-25.9c1.2-1.1,2.6-0.8,4-0.8c10.9,0,21.9,0,32.8,0c1.6,0,3.1,0,4.7-0.2
		c1.6-0.2,2.6,0.9,3.6,1.9c3.6,3.6,7.3,7.3,10.9,10.9c2.1,2.1,2.1,2.1,4.1,0.1c3.7-3.7,7.4-7.4,11.1-11.1c1-0.9,1.9-1.9,3.4-1.6
		c22.3,0.1,44.5,0,66.7,0c1.2,0,2.3-0.1,3.5,0.2c1.1,0.3,2.2,0.6,1.7,2.1c-3.9,9.4-9.6,17.5-17,24.5
		C108.7,150.8,71.4,150.8,34.1,151z"/>
	<path class="st11" d="M20,55.5c3.8-7.1,8.6-13.5,14.6-19c0.7-0.4,1.4-0.4,2.2-0.4c35.5,0.1,71.1,0.1,106.6,0c0.8,0,1.5-0.1,2.2,0.4
		c5.9,5.5,10.9,11.8,14.5,19c-1.8,1.1-3.7,0.8-5.6,0.8c-35.6,0-71.3,0-106.9,0c-7.7,0-15.3,0-23,0C23,56.3,21.4,56.5,20,55.5z"/>
	<path class="st12" d="M34.1,151c0.5-1,1.4-1,2.4-1c35.8,0,71.5,0,107.3,0c0.9,0,1.9-0.1,2.4,1c-8,8.4-17.6,14.5-28.5,18.2
		c-30.5,10.3-57.9,4.6-82.1-16.7C34.9,152,34.5,151.5,34.1,151z"/>
	<path class="st13" d="M20,55.5c1.4,0,2.8,0,4.2,0c43.9,0,87.8,0,131.7,0c1.4,0,2.8,0,4.2,0c3.4,5.6,5.7,11.7,7.4,18
		c-0.9,0.4-1.8,0.3-2.7,0.3c-7.4,0-14.7,0-22.1,0c-1.4,0-2.8,0-4.2,0.4c-1.4,0.4-2.3-0.5-3.2-1.4c-2.8-2.8-5.5-5.5-8.3-8.3
		c-2.4-2.4-2.4-2.4-4.8,0.1c-0.9,0.9-1.8,1.8-2.7,2.6c-0.8,0.8-1.7,1.3-2.9,1c-2-0.4-4-0.4-6-0.4c-31.1,0-62.2,0-93.2,0
		c-0.9,0-1.8,0.1-2.7-0.3C15.9,63.3,17.8,59.4,20,55.5z"/>
	<path class="st14" d="M145.5,36.6c-1.3,0.4-2.6,0.5-3.9,0.5c-34.4,0-68.7,0-103.1,0c-1.3,0-2.6-0.1-3.9-0.5
		c8.5-8.6,18.6-14.9,30.1-18.4c28.7-8.9,54.8-3.8,78,15.7C143.7,34.7,144.8,35.4,145.5,36.6z"/>
	<path class="st15" d="M10.6,102c-1-7-0.6-14,0.6-21c0.9-0.9,2.1-0.8,3.3-0.8c28.8,0,57.5,0,86.3,0c0.9,0,1.8,0,2.7,0.3
		c1.2,0.6,0.7,1.3,0.2,2c-4.4,5.4-9.6,10.1-14.5,15c-0.6,0.6-1.4,0.9-2.3,0.8c-8.1-0.2-16.3-0.1-24.4,0c-1.3,0.2-2.2-0.6-3-1.4
		c-1.6-1.6-3.2-3.1-4.7-4.8c-1.2-1.3-2.1-1.2-3.3,0.1c-3.1,3.2-6.3,6.4-9.5,9.5c-0.9,0.9-1.8,1.9-3.2,1.2
		c-8.1-0.5-16.2-0.1-24.2-0.2C13.1,102.8,11.7,103,10.6,102z"/>
	<path class="st16" d="M163,126.5c-0.2-1.9-1.7-1.5-2.9-1.5c-16,0-32.1,0-48.1,0c-6.3,0-12.6,0-19,0c-1.1,0-2.2,0-3.1-0.5
		c-0.1-1.2,0.8-1.8,1.5-2.4c6.2-6.2,12.4-12.4,18.6-18.6c1-1,2-2,3.6-1.9c5.7,0.4,11.5,0.1,17.2,0.2c11.5,0,23.1,0,34.6,0
		c1.4,0,2.9-0.3,4,0.8C169,111,166.7,118.9,163,126.5z"/>
	<path class="st17" d="M104,81.4c-0.9-0.6-1.9-0.3-2.9-0.3c-30,0-60,0-90,0c0.5-4.7,1.7-9.2,3.5-13.5c0.9-0.6,1.9-0.5,2.9-0.5
		c31.8,0,63.7,0,95.5,0c1.6,0,3.1,0.2,4.5,1c0.4,1-0.4,1.5-0.9,2.1c-3.5,3.5-7,7-10.5,10.5C105.6,81.1,105.1,82,104,81.4z"/>
	<path class="st16" d="M10.6,102c8.7,0,17.4,0,26.1,0c1,0,2.2-0.3,2.9,0.9c0.3,1.4,1.3,2.3,2.2,3.2c5.3,5.3,10.5,10.5,15.8,15.8
		c0.7,0.7,1.8,1.2,1.5,2.6c-1.3,0.4-2.6,0.5-3.9,0.5c-12.9,0-25.8,0-38.7,0c-2.8-6.2-4.8-12.6-5.4-19.4c-0.5-0.8,0-1.8-0.4-2.6
		C10.6,102.7,10.6,102.4,10.6,102z"/>
	<path class="st18" d="M169.5,102.5c-17.6,0-35.3,0-52.9,0c-1.4,0-2.8-0.1-4.2-0.6c-0.1-1.1,0.7-1.6,1.3-2.3
		c4.2-4.2,8.3-8.4,12.5-12.5c0.9-0.9,1.8-1.7,3.3-1.5c12,0.1,24,0,35.9,0.1c1.4,0,2.9-0.2,4.1,0.8
		C170.3,91.9,170.2,97.2,169.5,102.5z"/>
	<path class="st19" d="M169.6,86.5c-12.6,0-25.1,0-37.7,0c-1.2,0-2.3,0.1-3.4-0.5c-0.1-1.1,0.7-1.6,1.3-2.3c2.1-2.1,4.2-4.3,6.3-6.3
		c1-0.9,1.5-1.9,1.4-3.3c0.6-0.9,1.6-1.1,2.6-1.1c8.5,0,16.9,0,25.4,0c0.7,0,1.3,0.1,1.9,0.5C168.7,77.8,169.4,82.1,169.6,86.5z"/>
	<path class="st20" d="M113.5,178.1c-4.5,1.8-9.3,2.2-14,3c-3.7,0.6-7.4,0.7-11.2,0.5c-11-0.4-21.7-2.4-31.8-6.9
		c-3.7-1.6-7.2-3.6-10.9-5.4c-0.5-0.2-0.8-0.8-1.2-1.3c-0.1-0.5,0-0.7,0.5-0.5c5.9,3,11.7,6.2,18.1,8.2c6.5,2,13.1,3.3,19.9,3.9
		c13.7,1.3,26.7-1,39.4-6c4.3-1.7,8.3-4.1,12.5-6.1c1.3,0.9,0,1.3-0.4,1.5c-4.2,2.4-8.5,4.8-13,6.6c-0.2,0.1-0.4,0.2-0.6,0.3
		c-0.8,0.2-1.5,0.5-2.2,0.9c-0.2,0.1-0.4,0.2-0.7,0.2C116.5,177,115.1,177.6,113.5,178.1z"/>
	<path class="st9" d="M16,143.5c-0.3-2.1-1.6-3.5-3-5c-0.6-2.6-1.8-4.9-3.5-7c-0.2-3.2-2-5.9-3-8.9C3,112,1.9,100.9,2.7,89.8
		C3.2,80.6,5.2,71.5,9.1,63c0.4-0.8,0.5-1.6,0.4-2.4c1.6-1.7,2-4.2,3.5-6c0.2,0,0.3,0,0.5,0c-1.1,2.7-2.4,5.3-3.4,8
		C7.6,69,5.9,75.8,5,82.7c0,0.3-0.3,0.6-0.5,0.8c-0.5,0.7-0.3,1.3,0,2C4.3,87,5,88.6,4.1,90.1C4,90,3.9,89.9,3.9,89.9
		c0.1-0.3-0.1-0.3-0.1-0.1c-0.5,12.5,1.2,24.7,5.6,36.4c0.4,0.9,0.7,1.9,1,2.9c1.4,4.1,3.8,7.8,5.8,11.5c0.4,0.8,0.9,1.6,1.1,2.5
		c0,0.4,0,0.7-0.3,1C16.7,143.9,16.4,143.7,16,143.5z"/>
	<path class="st21" d="M121,175.5c2.4-1.2,4.8-2.5,7.3-3.5c2.3-0.9,4.2-2.6,6.5-3.6c0.3-0.1,0.7-0.5,0.2-1
		c5.4-3.7,10.6-7.7,15.4-12.1c0.8-0.7,1.5-1.6,2.2-2.4c0.8-0.1,0.7,0.4,0.7,0.9c-4.2,4.8-8.9,9.1-14.3,12.6c-4.6,3.5-9.8,6.1-15,8.5
		C123.1,175.3,122.2,176.2,121,175.5z"/>
	<path class="st22" d="M9,126.5c-2.8-6-3.9-12.4-5-18.9c-0.6-3.7-0.4-7.4-0.9-11.1c-0.4-2.7,0.8-5.6,0.2-8.9c1,1,0.6,1.8,0.7,2.4
		c-0.3,9.5,1,18.8,3.5,28c-0.4,2.1,1,3.8,1.4,5.8C9.1,124.7,9.9,125.6,9,126.5z"/>
	<path class="st23" d="M26,153c-0.2,0-0.3,0-0.5,0c-2.5-0.3-3-2.6-4.3-4.1c-0.3-0.8-0.8-1.5-1.5-2c-0.2-0.2-0.4-0.5-0.6-0.8
		c-0.2-1.1-1.1-1.9-1.6-2.8c-0.1-0.2-0.2-0.4-0.3-0.6c-1.7-3.5-3.9-6.7-5.5-10.2c-0.4-0.8-0.9-1.6-1-2.5c0.1-0.5,0.2-1,0.9-0.9
		c3.1,6.7,6.8,13,11.4,18.7c0.9,1.1,1.7,2.2,2.6,3.3C25,151.9,26.5,152.2,26,153z"/>
	<path class="st24" d="M26,153c0-0.7-1.5-1-0.5-2c5.1,5.7,11,10.5,17.3,14.9c0.7,0.5,1.5,1.1,2.2,1.6c-0.2,0.2-0.3,0.3-0.5,0.5
		c-3.5-1.3-6.1-3.8-9-6C32.1,159.4,28.9,156.4,26,153z"/>
	<path class="st25" d="M162.5,143.5c-0.7,0.6-1,1.7-2,2c-0.5-0.4-0.5-1-0.5-1.5c3.2-4.8,6.1-9.7,8.5-15c0.8,0,0.8,0.4,0.5,1
		c0,0.2,0,0.3,0,0.5c-0.4,0.6-0.5,1.4-1,2C166.8,136.5,164.2,139.8,162.5,143.5z"/>
	<path class="st26" d="M175,111.5c-1.1,5.8-2.6,11.5-5,17c-0.9-1,0.3-2,0-3c1.9-5.2,3.7-10.5,4.5-16
		C175.9,109.9,175.2,110.8,175,111.5z"/>
	<path class="st22" d="M175,111.5c-0.1-0.7,0.2-1.5-0.5-2c1.2-6.9,1.7-14,1.5-21c0.6,0.5,0.5,1.2,0.5,1.8c0.1,6.8,0.1,13.6-1,20.3
		C175.5,111,175.2,111.3,175,111.5z"/>
	<path class="st25" d="M11.5,129.1c-0.4,0.2-0.5,0.6-0.5,1c-1,0.3-0.6-0.8-1-1c-0.7-0.7-0.8-1.6-1-2.5c0.1-2.2-1.1-4-1.6-6
		c-0.2-0.9-0.9-1.7,0.1-2.5C8.5,121.8,10,125.5,11.5,129.1z"/>
	<path class="st27" d="M160,144c0.6,0.4,0.5,1,0.5,1.5c-2.5,2.8-4.3,6.3-7.5,8.5c0-0.4-0.1-0.8-0.5-1
		C155.2,150.1,157.8,147.3,160,144z"/>
	<path class="st25" d="M170.1,125.6c0.8,1-0.4,2,0,3c-0.3,0.5-0.7,1-1,1.5c0-0.4-0.1-0.8-0.5-1C169.1,127.9,169.6,126.7,170.1,125.6
		z"/>
	<path class="st9" d="M167,56c1.6,0.6,1.8,2,2,3.5C168,58.6,167.7,57.2,167,56z"/>
	<path class="st22" d="M4.5,85.5c-0.7-0.7-0.6-1.6-0.3-2.5c0.1-0.3,0.4-0.2,0.2,0c-0.1,0.1,0.1,0.3,0.1,0.5
		C4.5,84.2,4.5,84.9,4.5,85.5z"/>
	<path class="st15" d="M10.6,103.1c0.7,0.8,0.3,1.7,0.4,2.6C10.5,104.9,10.6,104,10.6,103.1z"/>
	<path class="st28" d="M21.5,148.5c1.3,1.6,2.2,3.4,4,4.5c1.6,3.1,4.3,5.1,6.8,7.4c4.3,3.8,8.8,7.4,13.9,10.2c0.3,0.2,0.5,0.6,0.8,1
		c-0.3,0.2-0.7,0.3-1,0.5c-3.1-2.7-6.8-4.5-10-7.1c-5.4-4.4-10.4-9.2-14.7-14.7c-0.3-0.4-0.9-0.8-1.3-1.1c-0.4-2-2.3-3.1-3-5
		c0-0.3,0-0.7,0-1c0.2-0.2,0.3-0.2,0.5,0h0c0.7,1,1.4,2,2,3c0.2,0.2,0.3,0.3,0.5,0.5C20.5,147.3,21.1,147.9,21.5,148.5z"/>
	<path class="st28" d="M65,179c0.3,0.3,0.7,0.7,1,1c-0.2,0.2-0.3,0.2-0.5,0c-6.1-1.9-11.9-4.3-17.5-7.5c-0.4-0.2-0.7-0.7-1-1
		c2.2-0.1,3.6,1.6,5.4,2.5C56.5,176.1,60.9,177.1,65,179z"/>
	<path class="st2" d="M65.5,180c0.2,0,0.3,0,0.5,0c0.7,0.1,1.5-0.2,2,0.5C67.2,180.4,66.2,180.9,65.5,180z"/>
	<path class="st25" d="M168,132.5c0.1-0.8,0.4-1.5,1-2C169.1,131.4,169,132.2,168,132.5z"/>
	<path class="st25" d="M153,154c2.7-2.6,4.5-6.1,7.5-8.5c-0.8,2.2-2.4,3.8-3.8,5.5c-4.9,5.9-10.5,11.1-16.7,15.5c-0.3,0-0.7,0-1,0
		C143.7,162.4,148.4,158.2,153,154z"/>
	<path class="st8" d="M121,175.5c1-0.2,2-0.3,3-0.5c-1.2,1.3-3.3,1.1-4.5,2.5c-0.7,0-1.3,0-2,0c0,0,0,0,0,0c-0.3-1,0.8-0.6,1-1
		C119.4,176.1,120.3,176,121,175.5L121,175.5z"/>
	<path class="st21" d="M118.5,176.5c-0.3,0.3-0.7,0.7-1,1c-1.3,0.2-2.7,0.3-4,0.5C115.1,177.1,116.7,176.6,118.5,176.5z"/>
	<path class="st0" d="M137.5,74.2c0.9,0.9,1.1,1.6-0.1,2.7c-3.1,2.9-6,6.1-9,9.1c-5.5,5.2-10.8,10.5-16,16
		c-7.7,7.3-15.1,14.9-22.5,22.5c-4.7,4.6-9.3,9.1-13.9,13.8c-1.2,1.2-1.8,1.3-3.1,0c-4.6-4.7-9.3-9.2-13.9-13.8
		c-6.3-6.3-12.6-12.7-18.8-19c-0.7-0.7-2-1.3-0.6-2.6c4.3-3.6,8-7.7,11.9-11.6c1.2-1.2,1.9-1.4,3.1,0c2.2,2.4,4.6,4.5,6.9,6.8
		c1,0.2,1.7,1,2.4,1.7c2.9,2.9,5.7,5.7,8.6,8.6c2.1,2.1,2.1,2.1,4.1,0.1c2.9-2.9,5.7-5.7,8.6-8.6c0.7-0.7,1.4-1.5,2.3-1.8
		c5-4.8,10-9.6,14.6-14.7c0.6-0.7,1.3-1.3,2-1.9c4.7-4.2,9.1-8.8,13.5-13.4c1.9-1.8,3.9-3.6,5.7-5.5c1-1,1.6-1,2.5,0
		C129.6,66.4,133.6,70.3,137.5,74.2z"/>
	<path class="st29" d="M87.5,98c-4,4.1-8,8.1-12,12.2c-0.7,0.7-1.2,0.9-2,0.1c-4-4.1-8-8.2-12-12.3c0.7-0.4,1.5-0.6,2.4-0.5
		c7.2,0,14.3,0,21.5,0C86.1,97.5,86.8,97.7,87.5,98z"/>
	<path class="st21" d="M121,175.5c-0.6,0.8-1.5,1-2.5,1C119.2,175.8,120.1,175.5,121,175.5z"/>
	<path class="st22" d="M17.5,143c-0.2,0-0.3,0-0.5,0c-2.1-3.8-4.1-7.6-6.2-11.4c-0.4-0.8-0.9-1.6-0.8-2.6c0.3,0.3,0.7,0.7,1,1
		c1.3,4,3.7,7.3,5.7,11C17,141.7,17.3,142.4,17.5,143z"/>
	<path class="st22" d="M19.5,146c-1.2-0.6-1.8-1.7-2-3C18.6,143.8,19.7,144.5,19.5,146z"/>
	<path class="st22" d="M21.5,148.5c-0.8-0.4-1.5-1-1.5-2C20.9,147,21.5,147.5,21.5,148.5z"/>
</g>
</svg>
