<?xml version="1.0" encoding="utf-8"?>
<!-- Generator: Adobe Illustrator 19.0.0, SVG Export Plug-In . SVG Version: 6.00 Build 0)  -->
<svg version="1.1" id="Layer_1" xmlns="http://www.w3.org/2000/svg" xmlns:xlink="http://www.w3.org/1999/xlink" x="0px" y="0px"
	 viewBox="0 0 181.1 182.1" style="enable-background:new 0 0 181.1 182.1;" xml:space="preserve">
<style type="text/css">
	.st0{fill:#FEFEFE;}
	.st1{fill:#FAFAFA;}
	.st2{fill:#F7F7F7;}
	.st3{fill:#F9F9F9;}
	.st4{fill:#F6F6F6;}
	.st5{fill:#F0F0F0;}
	.st6{fill:#F1F1F1;}
	.st7{fill:#EEEEEE;}
	.st8{fill:#E8E8E8;}
	.st9{fill:#F3F3F3;}
	.st10{fill:#0379D2;}
	.st11{fill:#0378D0;}
	.st12{fill:#036EBF;}
	.st13{fill:#0376CD;}
	.st14{fill:#0376CE;}
	.st15{fill:#0369B6;}
	.st16{fill:#036BBA;}
	.st17{fill:#036BBB;}
	.st18{fill:#0375CB;}
	.st19{fill:#0373C9;}
	.st20{fill:#036DBD;}
	.st21{fill:#036AB8;}
	.st22{fill:#036AB7;}
	.st23{fill:#036CBB;}
	.st24{fill:#0370C2;}
	.st25{fill:#0374C9;}
	.st26{fill:#0372C5;}
	.st27{fill:#0371C4;}
	.st28{fill:#0373C7;}
	.st29{fill:#DEDEDE;}
	.st30{fill:#E0E0E0;}
	.st31{fill:#ECECEC;}
	.st32{fill:#E6E6E6;}
	.st33{fill:#DFDFDF;}
	.st34{fill:#E7E7E7;}
	.st35{fill:#E9E9E9;}
	.st36{fill:#E2E2E2;}
	.st37{fill:#F2F2F2;}
	.st38{fill:#036FC2;}
	.st39{fill:#0373C8;}
	.st40{fill:#0372C6;}
	.st41{fill:#036FC0;}
</style>
<g>
	<path class="st0" d="M81,182c-26.3,0-52.7,0-79,0c-1.7,0-2-0.3-2-2C0.1,120.7,0.1,61.4,0,2c0-1.7,0.3-2,2-2c59,0.1,118,0.1,177,0
		c1.7,0,2.1,0.3,2,2c-0.1,27,0,54,0,81c-1.8-0.5-1.3-2.2-1.5-3.3c-1-4.4-1.8-8.8-3-13.1c-0.3-1-0.6-1.9-1.1-2.8
		c-1.8-5.2-4.7-9.9-6.9-14.9c-0.6-1.1-1.3-2.2-2.1-3.1c-0.2-0.2-0.3-0.4-0.4-0.6c-2.6-4.7-6-8.7-10-12.4c-2.6-2.4-4.8-5.3-7.7-7.4
		c-6.9-5-14.2-9.5-22.1-12.9c-8.3-3.5-16.9-5.7-25.8-6.3C88.1,5.6,76,6.5,64.6,10.9c-7.1,2.7-13.8,6-20.2,10.2
		c-8.1,5.3-14.9,11.7-20.9,19.1c-1.3,1.6-2.2,3.3-3.2,5c-0.1,0.2-0.3,0.4-0.4,0.6c-0.8,0.9-1.5,1.9-2.1,3c-0.7,0.9-0.9,2-1.5,3
		c-1.4,2.2-2.6,4.5-3.5,7c-10.3,23.5-10.3,46.9,0,70.4c0.9,2.5,2.1,4.8,3.5,7.1c0.7,1.9,1.9,3.5,3,5.1c1.1,1.7,2.2,3.3,3.1,5
		c3.6,5,7.7,9.5,12.4,13.5c3.5,2.9,6.8,6.1,10.7,8.4c1.2,0.7,2.5,1.3,3.8,1.9c3.9,2,7.9,3.8,11.9,5.6c3.3,1.5,6.7,2.5,10.2,3.1
		c0.2,0,0.5,0.1,0.7,0.2c1.2,0.4,2.4,0.8,3.7,0.8c0.3,0,0.7,0.1,1,0.2c0.8,0.3,1.6,0.6,2.4,0.6c0.2,0,0.4,0.1,0.6,0.1
		C80.4,181.2,81.2,181.1,81,182z"/>
	<path class="st0" d="M181,108.5c0,23.9,0,47.8,0,71.6c0,1.6-0.4,1.9-1.9,1.9c-23.9-0.1-47.8,0-71.6,0c-0.1-1.1,0.8-1.1,1.5-1.3
		c8.8-1.9,17.3-4.8,25.3-9c12-6.4,22-15.2,30-26.1c6.8-9.3,11.6-19.6,14.3-30.8c0.4-1.7,1-3.3,1.3-5
		C179.9,109.2,180.1,108.4,181,108.5z"/>
	<path class="st1" d="M181,108.5c-0.9,3.2-1.9,6.3-2.8,9.6c-2,7.8-5.4,15-9.5,21.8c-6.3,10.4-14.4,19.1-24.3,26.2
		c-9.3,6.6-19.4,11.3-30.5,14.1c-2.1,0.5-4.5,0.5-6.5,1.9c-2.7,0-5.3,0-8,0c0.3-1.4,1.4-1.1,2.3-1.2c9.4-1,18.4-3.3,26.9-7.4
		c0.4-0.2,0.7-0.5,1.1-0.7c1.1-0.7,2.3-1.2,3.4-2.1c0.4-0.3,0.8-0.5,1.3-0.6c4.2-1.6,7.6-4.4,11.1-7c8.1-6,14.6-13.5,20.3-21.7
		c0.3-0.5,0.5-1,0.8-1.6c2.1-3,3.4-6.4,5.2-9.5c0.6-0.5,1-1.1,1-1.9c0.1-0.6,0.3-1.1,0.7-1.5c0.5-0.6,0.8-1.3,0.9-2.1
		c0.1-0.2,0.2-0.5,0.3-0.7c1.7-3.6,2.6-7.4,3.2-11.4c0.1-0.3,0.1-0.5,0.2-0.8c0.9-2.9,1.2-5.9,1.6-8.9c0.1-1-0.4-2.2,1.2-2.5
		C181,103.2,181,105.9,181,108.5z"/>
	<path class="st2" d="M130.5,173c-5.4,3.3-11.3,5.1-17.5,6.6c-4.5,1.1-9,1.5-13.5,2.4c-2.7,0-5.3,0-8,0c-3-0.7-6.1,0.1-9.1-0.5
		c-1-0.2-2-0.2-2.9-0.5h0c-0.8-0.4-1.7,0-2.5-0.5c-0.3,0-0.7,0-1,0c-1.3-0.6-2.7-0.6-4-1h-0.2l-0.2,0c-0.6-0.4-0.8-0.9-0.1-1.3
		c0.6-0.3,1.3-0.3,1.9-0.1c8.1,2.4,16.4,2.5,24.7,2.2c6.6-0.2,13-1.4,19.2-3.6c0.5-0.4,1.1-0.7,1.8-0.7c1.4,0.4,2.4-0.5,3.6-0.9
		c2.4-0.5,4.5-1.9,6.8-2.5C129.9,172.6,130.3,172.7,130.5,173z"/>
	<path class="st2" d="M181,100.5c-0.5,3.2-1,6.4-1.5,9.6c-0.1,0.9-0.3,1.8-1,2.4c-0.9-0.9-0.6-2-0.3-3c1.1-5.1,1.5-10.4,1.4-15.5
		c0-5.7-0.3-11.4-1.8-17c0.1-3.3-1.5-6.3-2.1-9.4c-0.2-1-0.7-1.9-0.7-2.9c0-0.4,0.2-0.8,0.5-1.1c1.7,1.8,1.9,4.1,2.5,6.3
		c1.1,4.4,1.6,8.9,3,13.2C181,88.9,181,94.7,181,100.5z"/>
	<path class="st2" d="M79.5,181c4,0.3,8,0.2,12,1c-3.5,0-7,0-10.5,0C80.5,181.7,80,181.4,79.5,181z"/>
	<path class="st3" d="M19.5,45.5c3.6-7.1,9.1-12.5,14.9-17.8c3.5-3.2,7.4-5.6,11.2-8.2c4.5-3.1,9.5-5.3,14.5-7.5
		C66.8,9,73.8,7.3,80.9,6.3c5.2-0.8,10.5-0.8,15.7-0.5c3.3,0.2,6.5,0.3,9.8,0.8c7.2,1.1,14,3.1,20.7,6c7.7,3.3,14.6,7.6,21.3,12.5
		c2.3,1.7,4.4,3.8,6.3,5.9c2.7,2.9,5.7,5.5,8.1,8.7c1.5,1.9,2.6,3.9,3.6,5.9c0.6,3,2.9,5.3,4,8.1c0.6,1.3,1.2,2.5,1.9,3.7
		c0.1,0.2,0.2,0.4,0.3,0.7c2.4,5.7,4,11.7,5.3,17.8c0.6,3.6,1,7.3,1.5,10.9c0.3,6.9,0.1,13.7-1.2,20.4c-0.8,5.6-2.5,11-4.5,16.3
		c-0.6,1.2-1,2.6-1.7,3.8c-2.5,5.2-5.2,10.3-8.6,15c-2.2,3.3-4.9,6.2-7.5,9.2c-5.4,5.8-11.5,10.5-18.2,14.7
		c-29.9,16.8-59.7,16.9-89.6,0c-7.5-4.7-14.3-10.3-20.2-16.8c-5.1-6.3-9.6-12.9-13.3-20.2c-0.3-0.7-0.7-1.3-0.9-2
		c-1.5-3.7-3-7.4-4-11.3c-2.4-9-3.9-18.1-3.3-27.5c0.6-1.5,0.3-3,0.3-4.6c0-0.7,0-1.4,0.2-2c1.3-8,3-16,6.3-23.5
		c0.8-1.8,1.7-3.6,2.6-5.4C17,50.3,19.1,48.3,19.5,45.5z"/>
	<path class="st3" d="M12.5,129.5c-2.2-3.8-3.7-7.8-4.8-12.1c-1.3-5.3-2.5-10.6-3.1-16C4.3,98,4.3,94.5,4.7,91.1
		c0.2-1.8-0.3-3.5,0-5.4c0.6-3.3,0.8-6.8,1.7-10c1.6-5.8,2.4-12,6.1-17.1c0.1,0.1,0.2,0.2,0.3,0.3c-0.1,3.1-1.8,5.6-2.6,8.5
		C7,77.8,5.7,88.5,6.3,99.3c0.5,9.1,2.4,18.1,6,26.6c0.4,1.1,1.1,2.1,0.6,3.3C12.7,129.3,12.6,129.4,12.5,129.5z"/>
	<path class="st1" d="M49,170.5c-4.7-1.3-8.1-4.7-11.7-7.6c-5.4-4.4-10.3-9.4-14.5-14.9c-0.4-0.5-0.8-0.9-0.7-1.5
		c0.5-0.3,0.9-0.1,1.4,0.1c3.1,2.7,5.3,6.1,8.2,8.9c4.9,4.6,9.9,9,15.8,12.4c0.8,0.4,1.6,0.9,1.8,1.9
		C49.3,170.1,49.2,170.4,49,170.5z"/>
	<path class="st2" d="M49,170.5c0-0.2,0-0.3,0-0.5c0.2-0.4,0.4-0.6,0.8-0.7c0.2,0,0.5,0.1,0.7,0.2c5.6,3.5,11.8,5.6,17.9,8
		c0.7,0.4,1.6,0.3,2.3,0.7c0.1,0.1,0.2,0.2,0.2,0.3c0.2,0.3,0.3,0.7,0.5,1c-7.4-0.9-13.8-4.7-20.4-7.8C50.4,171.5,49.7,171,49,170.5
		z"/>
	<path class="st4" d="M170,54c-1.3-2.4-2.6-4.8-4-7.2c-0.4-0.7-0.6-1.2,0.5-1.3c0,0,0,0,0,0c0.6,1,1.2,2.1,2,3
		c2.2,3.8,4.3,7.7,6,11.7c0.4,1,1.2,2,1,3.3c0,0.3,0,0.7,0,1c-1.1,0.1-0.9-0.8-1.1-1.3c-0.7-1.9-1.6-3.8-2.4-5.7l0,0
		C171.5,56.3,171.3,54.9,170,54z"/>
	<path class="st4" d="M19.5,45.5c0.7,0.1,1.1,0.3,0.6,1.1c-1.2,1.9-2.4,3.9-3.6,5.9c-0.2,0.2-0.4,0.2-0.6,0c-0.2-0.4-0.1-0.7,0.1-1
		c0.4-1.1,0.3-2.4,1.5-3C18.3,47.6,18.9,46.6,19.5,45.5L19.5,45.5z"/>
	<path class="st3" d="M16,136.5c-1.8-2-3-4.4-3.5-7c0,0,0,0,0,0c1-0.3,1.3,0.5,1.6,1.1c0.8,1.8,2.4,3.4,2.2,5.6
		C16.2,136.4,16.1,136.5,16,136.5z"/>
	<path class="st3" d="M16,51.5c0,0.3,0,0.7,0,1c-0.4,2-1.7,3.7-2.5,5.6c-0.2,0.4-0.6,0.6-1,0.4c0,0,0,0,0,0
		C13.1,55.9,14.2,53.6,16,51.5z"/>
	<path class="st3" d="M23,147c-0.3-0.2-0.7-0.3-1-0.5c-1-1.6-2.4-3.1-3-5c0.1,0,0.2-0.1,0.4-0.1c0.4,0,0.7,0.2,1,0.5
		c0.7,0.9,1.5,1.8,2.2,2.7C23.1,145.3,23.8,146.1,23,147z"/>
	<path class="st3" d="M19,141.5c-1.5-1.4-2.7-2.9-3-5c0,0,0,0,0,0C18.2,137.4,19.5,139.4,19,141.5L19,141.5z"/>
	<path class="st3" d="M19.5,45.5c-0.2,1.3-0.8,2.4-2,3C17.9,47.3,18.5,46.3,19.5,45.5z"/>
	<path class="st2" d="M72,179.5c1.4,0,2.8,0,4,1C74.6,180.6,73.3,180.3,72,179.5z"/>
	<path class="st3" d="M168.5,48.5c-1.2-0.6-1.8-1.7-2-3C167.6,46.3,168.2,47.3,168.5,48.5z"/>
	<path class="st2" d="M77,180.5c0.8,0.1,1.8-0.3,2.5,0.5C78.6,181.5,77.8,181.2,77,180.5z"/>
	<path class="st5" d="M179,86.5c-0.5-3.7-1-7.3-1.5-11c-0.3-0.4-0.3-0.8,0.1-1c0.3-0.1,0.5,0.2,0.6,0.6c0.1,0.5-0.1,1,0.3,1.4
		c1.4,5.6,1.8,11.4,1.8,17.1c0,5.4-0.2,10.9-1.5,16.2c-0.2,0.9-0.3,1.8-0.3,2.7h0c-0.6,4.2-1.9,8.1-3.5,12c0,0.2,0,0.3,0,0.5
		c-0.5,0.6-0.5,1.4-1,2c-0.2,0.5-0.3,1-0.5,1.5c-0.4,0.6-0.5,1.4-1,2c-2.1,3-2.7,6.9-5.5,9.5c-0.5,0.5-0.2,1.9-1.6,1.5
		c-0.5-1.1,0.2-1.9,0.7-2.7c1.8-2.6,3.1-5.4,4.3-8.3c0.5-0.5,1-1.1,1.1-2c0-0.2,0.1-0.4,0.2-0.6c0.3-0.6,0.7-1.3,1-1.9
		c2.1-5.5,3.7-11.1,5-16.8c1.2-6.8,1.6-13.6,1.5-20.4C179.3,88,179.5,87.2,179,86.5z"/>
	<path class="st6" d="M165.5,141.5c0.5-0.5,1-1,1.5-1.5c-0.6,3-2.9,4.9-4.6,7.2c-6,8.1-13.4,14.7-21.7,20.2
		c-1.8,1.2-3.5,3.3-6.2,3.1c-0.2-1.4,1-1.5,1.8-2c2.2-1.4,4.5-2.4,6.4-4.2c3.2-2.6,6.5-5.2,9.5-8c4-3.8,7.5-8,10.7-12.4
		c0.1-0.2,0.3-0.4,0.4-0.5C164.1,142.7,164.3,141.5,165.5,141.5z"/>
	<path class="st7" d="M143,164.5c-1.6,2.2-4.2,3-6.4,4.4c-0.7,0.5-1.7,0.6-2.1,1.6c-0.3,0.2-0.7,0.3-1,0.5c-1.2,0.8-2.6,1.4-4,2
		c-2.3,1-4.4,2.5-7,2.5c0-0.1-0.1-0.2-0.1-0.3c1-1.7,3.1-1.5,4.4-2.6c5.2-2.5,10.2-5.4,15.1-8.4C142.4,164.2,142.8,164.2,143,164.5z
		"/>
	<path class="st2" d="M175,124.5c-0.1-2.2,1.3-4.1,1.8-6.1c0.5-2,1.1-3.9,1.7-5.9C178.2,116.8,177.5,120.9,175,124.5z"/>
	<path class="st6" d="M129.5,173c1.2-1,2.5-1.6,4-2c-0.6,1.2-2,1.3-3,2C130.2,173,129.9,173,129.5,173z"/>
	<path class="st2" d="M174,127c0-0.9,0.1-1.6,1-2C175.1,125.9,175,126.7,174,127z"/>
	<path class="st2" d="M172.5,130.5c0.1-0.8,0.4-1.5,1-2C173.6,129.4,173.5,130.2,172.5,130.5z"/>
	<path class="st8" d="M119.5,176.5c-0.5,0-1.1-0.1-1.5,0.5c-10.4,3.3-21.2,4-32.1,3.4c-5.9-0.3-11.6-1.9-17.4-2.9
		c-6.4-2.1-12.7-4.6-18.5-8h0c-7.8-4.2-14.4-9.8-20.6-16.1c-0.6-0.6-1.4-1.2-1.1-2.3c0.2-0.2,0.4-0.3,0.7-0.2
		c3.6,2.9,6.7,6.4,10.4,9.2c2.8,2.1,5.6,4.1,8.6,5.9c10,6.1,20.7,10,32.3,11.8c12.1,1.9,24,0.9,35.8-2.2c1.2-0.2,2.4-0.7,3.7-0.6
		c0.2,0.1,0.5,0.2,0.6,0.3C120.9,176.4,119.9,176.2,119.5,176.5z"/>
	<path class="st7" d="M68,177c2.2-0.2,4.2,0.7,6.3,1.2c9.4,2.2,18.8,2,28.4,1.5c5.3-0.3,10.1-2.4,15.3-2.7c-3.3,1.9-7,2.2-10.6,2.9
		c-6.8,1.4-13.7,1.3-20.5,1c-4.3-0.2-8.7-0.7-12.9-2c-1-0.3-1.9-0.4-2.9-0.4v0c-0.6-0.5-1.3-0.1-2-0.3C68.8,177.7,67.8,177.9,68,177
		z"/>
	<path class="st7" d="M119.5,176.5c0.3-0.3,0.7-0.7,1-1c0.7-0.6,1.3-0.6,2,0c0,0,0,0,0,0C121.7,176.3,120.8,177.1,119.5,176.5z"/>
	<path class="st9" d="M178.5,76.5c-0.5-0.3-0.5-0.8-0.5-1.2c0-0.2-0.1-0.5-0.4-0.2c-0.1,0.1-0.1,0.3-0.1,0.4
		c-1.4-6.1-3.5-12.1-5.5-18c1.8,2,2.2,4.7,3.5,7C176.6,68.5,178.3,72.4,178.5,76.5z"/>
	<path class="st10" d="M42.6,30.1c10.7-9,22.9-14.6,36.6-16.9c21.4-3.5,41.3,0.8,59.3,13c1.7,1.2,3.2,2.6,4.9,3.9
		c-0.4,1-1.4,1.1-2.3,1.2c-0.8,0.1-1.7,0.1-2.5,0.1c-30.4,0-60.9,0-91.3,0C45.8,31.3,43.8,31.9,42.6,30.1z"/>
	<path class="st11" d="M42.6,30.1c0.9,0.6,1.9,0.5,2.9,0.5c31.7,0,63.4,0,95,0c1,0,2,0.1,2.9-0.5c4.2,3.2,7.9,6.8,11.1,11
		c-1.2,1.6-3,1.3-4.6,1.3c-15.9,0-31.7,0-47.6,0c-1.5,0-3,0-4.5,0.2c-1.3,0.5-2.5,0-3.3-0.9c-0.9-1.2-1.6-0.6-2.4,0
		c-1,0.2-2,0.2-3,0.2c-17.6,0-35.3,0-52.9,0c-1.5,0-3.2,0.4-4.3-1.3C35,36.5,38.6,33.1,42.6,30.1z"/>
	<path class="st12" d="M20,124.5c-2.3-4.8-4.2-9.7-5-14.9c0.6-1.8,2.1-1.3,3.3-1.3c7.7-0.1,15.3-0.1,23,0c4.5,0,9-0.2,13.5,0.1
		c1.1,0.3,2.2,0.7,3.4,0.6c7.3,0.6,14.7,0.2,22.1,0.3c1.3,0,2.7-0.2,3.9,0.4c1,0.7,0.3,1.3-0.3,1.8c-4.6,4-8.8,8.4-13.5,12.2
		c-0.9,0.8-1.9,1.4-3.2,0.8c-3.4-0.4-6.8-0.2-10.2-0.2C44.7,124.4,32.4,124.1,20,124.5z"/>
	<path class="st13" d="M97,42.7c0.3-1.7,1.6-1.1,2.6-1.1c16.9,0,33.9,0,50.8,0c1.4,0,2.8-0.1,4.2-0.5c4.2,4.6,7.5,9.8,10,15.5
		c-1.2,1.1-2.7,0.8-4,0.8c-13.7,0-27.4,0-41.1,0c-1.5,0-3,0-4.5,0.3c-1.2,0.4-2.1-0.2-2.9-0.9c-4.7-4-9.2-8.1-13.9-12
		C97.6,44.2,96.9,43.6,97,42.7z"/>
	<path class="st14" d="M32,40.5c1.1,0.7,2.2,0.5,3.4,0.5c19.2,0,38.4,0,57.6,0c1.5,2.9,0.8,5.9,0.5,8.9c-0.1,0.7-0.8,1.1-1.5,1.1
		c-4.2,0.4-8.3,1.5-12.5,2.2c-0.2,0-0.5,0-0.7-0.1c-0.8-0.4-1.7-0.4-2.7-0.4c-16.1,0-32.2,0-48.3,0c-1.4,0-2.9,0.3-4-0.9
		C26.2,47.9,28.7,43.9,32,40.5z"/>
	<path class="st15" d="M133.1,161.1c-14.3,8.6-29.8,12-46.5,10.7c-11.5-0.9-22.2-4.1-32.2-9.7c-0.5-0.3-1-0.6-1.4-0.9
		c-0.1-1.2,0.9-1.2,1.7-1.4c0.8-0.2,1.7-0.1,2.5-0.1c24,0,47.9,0,71.9,0C130.4,159.8,132.2,159.1,133.1,161.1z"/>
	<path class="st16" d="M38.5,150.6c-2-1.9-4.2-3.6-5.6-6c1-1.7,2.7-1.3,4.3-1.3c11.5,0,23,0,34.4,0c5,0,10,0.1,15-0.1
		c0.7,0,1.3,0.2,1.9,0.1c20.4-0.1,40.8,0,61.1,0c1.3,0,2.7-0.1,3.5,1.3c-1.6,2.2-3.4,4.2-5.6,5.8c-26.4-0.1-52.7-0.1-79.1,0
		c-9.6,0-19.3-0.2-28.9,0.1C39.2,150.5,38.9,150.5,38.5,150.6z"/>
	<path class="st12" d="M171.1,109.6c-0.9,5.2-2.7,10.2-5,14.9c-13.7-0.5-27.4-0.1-41.1-0.2c-1.5,0-3,0.2-4.4-0.5c-1-0.7-0.6-1.4,0-2
		c3.6-3.4,6.4-7.3,8.7-11.7c0.4-0.8,1.1-1.5,2.1-1.7c4.2-0.4,8.5-0.2,12.7-0.2c7.9,0,15.8,0,23.7,0
		C169,108.3,170.5,107.8,171.1,109.6z"/>
	<path class="st17" d="M160.6,134.6c-1.6,3-3.7,5.6-6,8c-1.1,0.2-2.1,0.3-3.2,0.3c-19.6,0-39.3,0-58.9,0c-1.5,0-3,0.2-4.4-0.6
		c-1.4-2.9-0.8-5.8-0.5-8.8c0.1-1.1,1.1-1.4,2.1-1.3c2.5,0.1,5,0,7.5,0.1c10.5,1,21.1,0.3,31.6,0.4c9.2,0.1,18.4,0,27.7,0
		c1,0,2-0.1,3,0.2C160.2,133.2,161.1,133.4,160.6,134.6z"/>
	<path class="st18" d="M114,57.6c0.7-1.4,2-1,3.1-1c15.8,0,31.7,0,47.5,0c2,3.3,3.4,6.8,4.4,10.5c-0.7,0.4-1.5,0.3-2.2,0.3
		c-19.6,0-39.2,0-58.7,0c-0.8,0-1.7,0-2.5-0.2c-1.5-0.4-1.3-1.4-0.5-2.2C108,62.4,110.6,59.5,114,57.6z"/>
	<path class="st19" d="M104.4,66.5c20.4,0,40.8,0,61.2,0.1c1.2,0,2.3-0.2,3.4,0.5c1.2,2.9,2.1,5.9,2.5,9c-0.9,0.5-1.9,0.3-2.9,0.3
		c-12,0-24,0-36.1,0c-1,0.1-1.9-0.3-2.2-1.2c-0.8-2.3-2.2-2.3-4.1-1.5c-8.4,0.2-16.9,0.1-25.3,0.1c-0.9,0-1.8-0.2-2.6-0.6
		c-0.5-0.3-1.1-0.8-0.7-1.3C99.5,69.7,101.2,67.1,104.4,66.5z"/>
	<path class="st20" d="M160.6,134.6c-0.4-1.7-1.7-1-2.6-1c-18,0-36.1-0.1-54.1,0c-2.3,0-4.6-0.5-6.9-0.6c0.3-1.2,1.4-1,2.3-1.1
		c6.7-1,12.7-3.6,18.2-7.6c0.8-0.6,1.5-1.6,2.8-1.2c1,0.6,2.1,0.5,3.1,0.5c13.4,0,26.7,0,40.1,0c0.9,0,2.3-0.7,2.7,1
		C164.2,127.9,163.1,131.7,160.6,134.6z"/>
	<path class="st21" d="M38.5,150.6c0.4-1.7,1.7-1,2.6-1c17.2,0,34.5-0.1,51.7,0c12.3,0.1,24.6-0.1,36.9,0.1c5.1,0.1,10.3,0,15.5-0.1
		c0.8,0,1.9-0.5,2.3,0.8c-2,1.6-3.7,3.4-6,4.7c-1.1,0.2-2.2,0.1-3.2,0.1c-29.8,0-59.6,0-89.3,0c-1.5,0-3-0.1-4.5,0.3
		C42.2,154.3,40.5,152.3,38.5,150.6z"/>
	<path class="st22" d="M133.1,161.1c-0.7-0.9-1.7-0.5-2.6-0.5c-24.9,0-49.9,0-74.8,0c-0.9,0-2-0.4-2.7,0.7c-2.7-1.6-5.5-3.1-7.9-5.3
		c-0.4-0.6-0.1-1,0.4-1.1c0.6-0.1,1.2-0.1,1.7-0.1c30.5,0,61,0,91.5,0c0.8,0,2.3-0.9,2.3,1.1C138.4,157.6,135.7,159.4,133.1,161.1z"
		/>
	<path class="st20" d="M20,124.5c0.2-1.2,1.1-1,1.9-1c14.6,0,29.1,0,43.7,0c0.9,0,1.9-0.1,2.3,1c-0.4,1.3,0.4,2,1.3,2.7
		c1.8,1.3,3.3,2.9,5,4.4c0.9,0.8,1.2,1.6-0.1,2.3c-1.4,0.6-2.9,0.5-4.4,0.5c-12.6,0-25.2,0-37.8,0c-2.2,0-4.3,0-6.5,0.3
		C23.1,131.6,21.5,128.1,20,124.5z"/>
	<path class="st23" d="M25.5,134.6c0.4-1.7,1.7-1,2.6-1c14.4,0,28.7,0,43.1,0c1.3,0,2.5-0.1,3.7-0.5c0.7-0.1,1.3,0.2,1.8,0.6
		c2.5,1.8,4.7,3.9,7,6c0.7,0.6,1.9,1.7,0,2.4c-1.3,0.3-2.7,0.2-4,0.2c-14.1,0-28.1,0-42.2,0c-2.2,0-4.3,0.4-6.5,0.2
		C29,140,26.7,137.7,25.5,134.6z"/>
	<path class="st24" d="M55.5,109c-12.6,0-25.1,0-37.7,0c-0.9,0-2-0.4-2.8,0.5c-0.9-3.3-1.5-6.6-1.5-10.1c0.7-0.7,1.6-0.8,2.6-0.8
		c11.5,0,22.9-0.1,34.4,0c0.5,0,1,0.1,1.5,0.2c0.2,0.1,0.6,0.1,0.7,0.3C54.2,102.4,55.6,105.5,55.5,109z"/>
	<path class="st25" d="M14.6,76c0.5-3.5,1.5-6.8,2.8-10c1.1-0.8,2.3-0.7,3.6-0.7c11.6,0,23.1,0,34.7,0c1.3,0,2.7,0,3.9,0.6
		c0.9,0.5,1,1.3,0.5,2.1c-1.3,2.2-2.5,4.5-3.7,6.7c-0.4,0.7-0.9,1.1-1.8,1.1c-10.1,0-20.1,0-30.2,0C21.1,75.8,17.9,75.8,14.6,76z"/>
	<path class="st24" d="M171.1,109.6c-0.8-0.9-1.9-0.5-2.8-0.5c-12.5,0-25.1,0-37.6,0c0.2-3.5,1.3-6.7,3.2-9.7
		c1.2-0.7,2.6-0.6,3.9-0.6c10.3,0,20.7,0,31,0c1.3,0,2.7-0.2,3.8,0.8C172.6,103,172,106.3,171.1,109.6z"/>
	<path class="st18" d="M60.1,66.6C58.8,66.2,57.4,66,56,66c-12.9,0-25.7,0-38.6,0c0.9-2.7,1.9-5.4,3.3-7.9c0.6-0.4,1.3-0.4,1.9-0.4
		c13.5,0.1,26.9,0,40.4,0.1c1.3,0,2.7-0.1,3.9,0.5c0.6,0.4,1.1,1,0.5,1.6C64.9,62,63.1,64.9,60.1,66.6z"/>
	<path class="st18" d="M67.8,59.1c-1-0.6-2.2-0.6-3.4-0.6c-13.4,0-26.7,0-40.1,0c-1.3,0-2.5-0.1-3.7-0.5c1-2.1,1.7-4.2,3.1-6.1
		c17.4,0,34.7,0,52.1,0.1c1.1,0,2.4-0.4,3.2,0.9c-0.4,0.9-1.3,1-2,1.4c-2.5,1.2-5,2.2-7.1,4.1C69.4,58.9,68.7,59.5,67.8,59.1z"/>
	<path class="st26" d="M13.1,91c-0.2-2.9,0.1-5.7,0.5-8.5c0.9-0.9,2-0.8,3-0.8c11,0,21.9,0,32.9,0c1.3,0,2.7-0.1,3.4,1.4
		c0.1,3.8,0.1,7.5-0.8,11.3c-0.3,0.2-0.5,0.3-0.8,0.1c-0.6-2.2-2.1-2.7-4.3-2.7c-9.8,0.1-19.6,0.1-29.4,0C16.2,91.8,14.5,92,13.1,91
		z"/>
	<path class="st26" d="M172.5,83c0.4,2.7,0.7,5.3,0.5,8c-0.8,0.8-1.8,0.8-2.8,0.8c-11,0-22,0-33,0c-0.8,0-1.7,0-2.5-0.4
		c-0.5-0.3-1-0.7-1.1-1.3c-0.2-2.6-1.4-5.2-0.1-7.9c1-0.6,2.1-0.6,3.1-0.6c10.7,0,21.3,0,32,0C170.1,81.8,171.6,81.5,172.5,83z"/>
	<path class="st27" d="M134.5,91c12.8,0,25.6,0,38.5,0c0.1,2.8,0.3,5.7-0.4,8.5c-11.9,0-23.9,0-35.8,0c-1.1,0-2.2-0.2-3.1,0.5
		C132.9,97,132.9,93.9,134.5,91z"/>
	<path class="st28" d="M52.6,83.6c-0.4-1.7-1.7-1-2.6-1c-12.1,0-24.2,0-36.3,0c0.1-2.2,0.5-4.4,1-6.5c0.6-0.9,1.4-1,2.4-1
		c12,0,24,0,36,0c0.7,0,1.5-0.2,2.1,0.5C55.1,78.5,54.5,81.3,52.6,83.6z"/>
	<path class="st28" d="M172.5,83c-0.7-0.4-1.4-0.5-2.2-0.5c-12.3,0-24.6,0-37,0.1c-1.5-1.9-2.3-3.9-1.9-6.4c0.6-1,1.6-0.7,2.5-0.7
		c11.6,0,23.2,0,34.8,0c0.9,0,1.8-0.1,2.6,0.5C172,78.3,172.5,80.7,172.5,83z"/>
	<path class="st27" d="M51.5,94.5c0.1,0,0.3,0,0.4,0c1.1,1.6,1.7,3.2,0.6,5c-13,0-26,0-39,0c0-0.3,0-0.5,0-0.8
		c-0.1-0.2-0.1-0.3-0.2-0.5c-0.3-3.7,0-4,3.7-4c6.6-0.1,13.3,0.1,19.9,0c4.1-0.1,8.1,0,12.2,0C49.9,94.2,50.8,94.1,51.5,94.5z"/>
	<path class="st27" d="M51.5,94.5c-1,0.6-2.1,0.5-3.1,0.5c-10.4,0-20.7,0-31.1,0c-3.7,0-3.7,0-3.8,3.7c-0.7-2.5-0.4-5.1-0.4-7.7
		c12.2,0,24.5,0,36.7,0C52.7,91.1,51.1,93.3,51.5,94.5z"/>
	<path class="st16" d="M31.1,142.5c1.3-1,2.8-1,4.3-1c16.5,0,32.9,0,49.4-0.1c1.3,0.1,2.4,0.4,2.2,2.1c-1,0.7-2.1,0.5-3.1,0.5
		c-15.8,0-31.7,0-47.5,0c-1.2,0-2.3-0.1-3.4,0.6C32.2,144,31.4,143.4,31.1,142.5z"/>
	<path class="st16" d="M88.1,142c21.2,0,42.4,0,63.6,0c0.9,0,2-0.4,2.8,0.6c-0.5,0.7-0.9,1.3-1.4,2c-1.1-0.6-2.2-0.6-3.4-0.6
		c-20.6,0-41.2,0-61.8,0C87.5,143.3,87.4,142.6,88.1,142z"/>
	<path class="st29" d="M116.5,176c-4.5,1.8-9.3,2.2-14,3c-3.7,0.6-7.4,0.7-11.2,0.5c-11-0.4-21.7-2.4-31.8-6.9
		c-3.7-1.6-7.2-3.6-10.9-5.4c-0.5-0.2-0.8-0.8-1.2-1.3c-0.1-0.5,0-0.7,0.5-0.5c5.9,3,11.7,6.2,18.1,8.2c6.5,2,13.1,3.3,19.9,3.9
		c13.7,1.3,26.7-1,39.4-6c4.3-1.7,8.3-4.1,12.5-6.1c1.3,0.9,0,1.3-0.4,1.5c-4.2,2.4-8.5,4.8-13,6.6c-0.2,0.1-0.4,0.2-0.6,0.3
		c-0.8,0.2-1.5,0.5-2.2,0.9c-0.2,0.1-0.4,0.2-0.7,0.2C119.5,175,118.1,175.6,116.5,176z"/>
	<path class="st9" d="M19,141.5c-0.3-2.1-1.6-3.5-3-5c-0.6-2.6-1.8-4.9-3.5-7c0-3-1.8-5.4-2.7-8.2C6.3,110.7,5,99.7,5.6,88.6
		c0.6-9.3,2.4-18.5,6.3-27.1c0.4-0.9,0.8-1.8,0.7-2.9c1.8-1.6,1.9-4.2,3.5-6c0.2,0,0.3,0,0.5,0c-1.1,2.7-2.4,5.3-3.4,8
		C10.6,67,8.9,73.8,8,80.7c0,0.3-0.3,0.6-0.5,0.8c-0.5,0.7-0.3,1.3,0,2C7.3,85,8,86.6,7,88C7,88,7,87.9,6.9,87.9
		c-0.4-0.3,0,0.1-0.1,0.1c-0.6,12.4,1.2,24.5,5.6,36.2c0.4,0.9,0.7,1.9,1,2.9c1.4,4.1,3.8,7.8,5.8,11.5c0.4,0.8,0.9,1.6,1.1,2.5
		c0,0.4,0,0.7-0.3,1C19.7,141.9,19.4,141.7,19,141.5z"/>
	<path class="st21" d="M141,155.9c-0.3-1.2-1.3-0.9-2-0.9c-30.6,0-61.3,0-91.9,0c-0.8,0-1.8-0.3-2,0.9c-0.2-0.1-0.3-0.3-0.5-0.4
		c0.4-1.6,1.8-1,2.7-1c25.2,0,50.4,0,75.6,0c5.4,0,10.8,0,16.2,0c0.9,0,1.9-0.3,2.6,0.6C141.5,155.5,141.6,155.9,141,155.9z"/>
	<path class="st30" d="M124,173.5c2.4-1.2,4.8-2.5,7.3-3.5c2.3-0.9,4.2-2.6,6.5-3.6c0.3-0.1,0.7-0.5,0.2-1
		c5.4-3.7,10.6-7.7,15.4-12.1c0.8-0.7,1.5-1.6,2.2-2.4c0.8-0.1,0.7,0.4,0.7,0.9c-4.2,4.8-8.9,9.1-14.3,12.6c-4.6,3.5-9.8,6.1-15,8.5
		C126.1,173.3,125.2,174.2,124,173.5z"/>
	<path class="st31" d="M12,124.5c-2.8-6-3.9-12.4-5-18.9c-0.6-3.7-0.4-7.4-0.9-11.1c-0.4-2.7,0.8-5.6,0.2-8.9c1,1,0.6,1.8,0.7,2.4
		c-0.3,9.5,1,18.8,3.5,28c-0.4,2.1,1,3.8,1.4,5.8C12.1,122.7,12.9,123.6,12,124.5z"/>
	<path class="st32" d="M29,151c-0.2,0-0.3,0-0.5,0c-2.5-0.3-3-2.6-4.3-4.1c-0.3-0.8-0.8-1.5-1.5-2.1c-0.3-0.2-0.5-0.5-0.6-0.8
		c-0.2-1.1-1.1-1.9-1.6-2.8c-0.1-0.2-0.2-0.4-0.3-0.6c-1.7-3.5-3.9-6.7-5.5-10.2c-0.4-0.8-0.9-1.6-1-2.5c0.1-0.5,0.2-1,0.9-0.9
		c3.1,6.7,6.8,13,11.4,18.7c0.9,1.1,1.7,2.2,2.6,3.3C28,149.9,29.5,150.2,29,151z"/>
	<path class="st33" d="M29,151c0-0.7-1.5-1-0.5-2c5.1,5.7,11,10.5,17.3,14.9c0.7,0.5,1.5,1.1,2.2,1.6c-0.2,0.2-0.3,0.3-0.5,0.5
		c-3.5-1.3-6.1-3.8-9-6C35.1,157.4,31.9,154.4,29,151z"/>
	<path class="st34" d="M165.5,141.5c-0.7,0.6-1,1.7-2,2c-0.5-0.4-0.5-1-0.5-1.5c3.2-4.8,6.1-9.7,8.5-15c0.8,0,0.8,0.4,0.5,1
		c0,0.2,0,0.3,0,0.5c-0.4,0.6-0.5,1.4-1,2C169.8,134.5,167.2,137.8,165.5,141.5z"/>
	<path class="st35" d="M178,109.5c-1.1,5.8-2.6,11.5-5,17c-0.9-1,0.3-2,0-3c1.9-5.2,3.7-10.5,4.5-16
		C178.9,107.9,178.2,108.8,178,109.5z"/>
	<path class="st31" d="M178,109.5c-0.1-0.7,0.2-1.5-0.5-2c1.2-6.9,1.7-14,1.5-21c0.6,0.5,0.5,1.2,0.5,1.8c0.1,6.8,0.1,13.6-1,20.3
		C178.5,109,178.2,109.3,178,109.5z"/>
	<path class="st34" d="M14.5,127.1c-0.4,0.2-0.5,0.6-0.5,1c-1,0.3-0.6-0.8-1-1c-0.7-0.7-0.8-1.6-1-2.5c0.1-2.2-1.1-4-1.6-6
		c-0.2-0.9-0.9-1.7,0.1-2.5C11.5,119.8,13,123.5,14.5,127.1z"/>
	<path class="st36" d="M163,142c0.6,0.4,0.5,1,0.5,1.5c-2.5,2.8-4.3,6.3-7.5,8.5c0-0.4-0.1-0.8-0.5-1
		C158.2,148.1,160.8,145.2,163,142z"/>
	<path class="st34" d="M173.1,123.5c0.8,1-0.4,2,0,3c-0.3,0.5-0.7,1-1,1.5c0-0.4-0.1-0.8-0.5-1C172.1,125.9,172.6,124.7,173.1,123.5
		z"/>
	<path class="st9" d="M170,54c1.6,0.6,1.8,2,2,3.5C171,56.6,170.7,55.2,170,54z"/>
	<path class="st31" d="M7.5,83.5c-0.7-0.7-0.6-1.6-0.3-2.5c0.1-0.3,0.4-0.2,0.2,0c-0.1,0.1,0.1,0.3,0.1,0.5
		C7.5,82.2,7.5,82.9,7.5,83.5z"/>
	<path class="st37" d="M22.5,144c0.2,0.2,0.3,0.3,0.5,0.5c0.4,0.7,1,1.3,1.5,2c1.3,1.6,2.2,3.4,4,4.5c1.6,3.1,4.3,5.1,6.8,7.4
		c4.3,3.8,8.8,7.4,13.9,10.2c0.3,0.2,0.5,0.6,0.8,1c-0.3,0.2-0.7,0.3-1,0.5c-3.1-2.7-6.8-4.5-10-7.1c-5.4-4.4-10.4-9.2-14.7-14.7
		c-0.3-0.4-0.9-0.8-1.3-1.1c-0.2-2.2-2.4-3.1-3-5c0-0.3,0-0.7,0-1c0.2-0.2,0.3-0.2,0.5,0h0C21.2,142,21.9,143,22.5,144z"/>
	<path class="st37" d="M68,177c0.3,0.3,0.7,0.7,1,1c-0.2,0.2-0.3,0.2-0.5,0c-6.1-1.9-11.9-4.3-17.5-7.5c-0.4-0.2-0.7-0.7-1-1
		c2.2-0.1,3.6,1.6,5.4,2.5C59.5,174.1,63.9,175.1,68,177z"/>
	<path class="st2" d="M68.5,178c0.2,0,0.3,0,0.5,0c0.7,0.1,1.5-0.2,2,0.5C70.2,178.4,69.2,178.9,68.5,178z"/>
	<path class="st34" d="M171,130.5c0.1-0.8,0.4-1.5,1-2C172.1,129.4,172,130.2,171,130.5z"/>
	<path class="st34" d="M156,152c2.7-2.6,4.5-6.1,7.5-8.5c-0.8,2.2-2.4,3.8-3.8,5.5c-4.9,5.9-10.5,11.1-16.7,15.5c-0.3,0-0.7,0-1,0
		C146.7,160.4,151.4,156.2,156,152z"/>
	<path class="st8" d="M124,173.5c1-0.2,2-0.3,3-0.5c-1.2,1.3-3.3,1.1-4.5,2.5c-0.7,0-1.3,0-2,0c0,0,0,0,0,0c-0.3-1,0.8-0.6,1-1
		C122.3,174.1,123.3,174,124,173.5L124,173.5z"/>
	<path class="st30" d="M121.5,174.5c-0.3,0.3-0.7,0.7-1,1c-1.3,0.2-2.7,0.3-4,0.5C118.1,175.1,119.7,174.5,121.5,174.5z"/>
	<path class="st0" d="M52.5,99.5c-0.2-1.7-0.4-3.3-0.6-5c0-3.7,0.1-7.3,0.6-10.9c0.8-2.7,1.7-5.3,2.5-8c1.7-3,3.4-6,5.1-9
		c2.4-2.7,4.6-5.5,7.6-7.4c3.5-2.6,7.1-4.9,11.3-6.2c4.1-1.2,8.3-2.3,12.6-2.3c1.3,0,1.5-0.6,1.4-1.6C93,46.3,93,43.7,93,41
		c0.4-0.2-0.5-2,1-0.8c1,0.8,2,1.6,3,2.5c5.7,5,11.4,9.9,17,14.9c-2.9,3.3-6.7,5.7-9.6,8.9c-2.5,1.8-4.8,3.9-6.9,6
		c-0.4,1.6-2,2-2.9,3.1c-1.4,1-2,0.4-2.1-1c-0.2-2.1-0.1-4.2,0-6.2c0.1-1.8-0.5-2.5-2.5-2.2c-9.7,1.3-16.4,6.5-20.5,15.2
		c-1.5,3.3-2.2,6.7-2.2,10.3c-0.3,2.5,0.7,5,0.7,7.5c-1.7,3.2-4.8,5.2-7.2,7.8c-1,1.1-1.9,2.3-3.5,2.6c-0.8,0.8-1.3,0.2-1.8-0.4
		C54.5,105.9,53.5,102.7,52.5,99.5z"/>
	<path class="st0" d="M88.1,142c-0.1,0.7-0.1,1.3-0.2,2c-0.4,0-0.8,0-1-0.5c-0.5-1-1.4-1.5-2.2-2.1c-3.1-3-6.3-5.9-9.8-8.4
		c-2.3-2.1-4.5-4.3-6.9-6.2c-1.2-1-1.3-1.6,0.1-2.3c3.4-2.1,6.2-4.9,9-7.5c2.4-2.2,4.8-4.5,7.4-6.6c0.4-0.8,1-1.5,1.7-2.1
		c1.5-1.3,1.8-1.1,2.5,0.9c0.1,1.9,0.1,3.8,0,5.7c-0.1,1.7,0.6,2.4,2.3,2.6c7.1,0.8,13.2-1.7,18.6-6.2c0.8-0.7,1.5-1.5,2.4-2.2
		c3.1-2.3,4.6-5.6,5.8-9.1c0.9-2.9,1.4-5.9,1.2-9c0.1-2.1-0.2-4.2-0.8-6.3c-0.3-1-0.6-2-0.1-3.1c1.9-2.3,4.2-4.3,6.2-6.5
		c0.9-0.9,1.7-1.9,3.1-2.2c1.2-1.2,2.2-1.6,2.8,0.5c0.3,0.9,0.9,1.7,1.4,2.6c0.6,2.1,1.3,4.3,1.9,6.4c0.4,2.8,0.8,5.6,1.1,8.4
		c-0.3,3-0.6,6-0.9,9c-1,3-2,6-3,9c-2.6,5.3-6.2,10-10.5,14c-6.8,5.6-14.6,8.8-23.2,9.9c-2.5,0-5,0-7.5-0.2
		c-1.2-0.1-1.4,0.2-1.4,1.3C88.1,136.7,88.1,139.4,88.1,142z"/>
	<path class="st38" d="M88.1,109c-0.4-0.2,0.5-1.9-0.9-0.8c-0.9,0.7-1.8,1.4-2.7,2.1c-0.8-0.6-1.8-0.3-2.6-0.3c-5.7,0-11.4,0-17.2,0
		c-2.5,0-5,0.1-7.4-0.6c3.2-3.5,6.6-6.9,10.1-10.1c1.6-0.3,3.3-0.1,5-0.1c13.9,0,27.9,0,41.8,0c1.3,0,3.1-0.7,3.8,1.3
		c-1,3.5-2.7,6.6-5.5,9c-7.4,0.7-14.9,0.2-22.4,0.3C89.4,109.8,88.7,109.6,88.1,109z"/>
	<path class="st39" d="M127.3,73.1c-0.8,0.8-1.7,1.7-2.5,2.5c-1.5,0.6-3.1,0.2-4.7,0.2c-7.3,0-14.6,0-21.8,0c-1.3,0-2.7,0.2-3.8-0.8
		c0.8-1,1.8-1.8,2.9-2.5c6.7,1.1,13.4,0.3,20.1,0.5C120.8,73.1,124,73.1,127.3,73.1z"/>
	<path class="st30" d="M124,173.5c-0.6,0.8-1.5,1-2.5,1C122.2,173.8,123.1,173.5,124,173.5z"/>
	<path class="st31" d="M20.5,141c-0.2,0-0.3,0-0.5,0c-2.1-3.8-4.1-7.6-6.2-11.4c-0.4-0.8-0.9-1.6-0.8-2.6c0.3,0.3,0.7,0.7,1,1
		c1.3,4,3.7,7.3,5.7,11C20,139.7,20.3,140.4,20.5,141z"/>
	<path class="st31" d="M22.5,144c-1.2-0.6-1.8-1.7-2-3C21.6,141.8,22.7,142.5,22.5,144z"/>
	<path class="st31" d="M24.5,146.5c-0.8-0.4-1.5-1-1.5-2C23.9,145,24.5,145.5,24.5,146.5z"/>
	<path class="st40" d="M118.8,81.6c-0.8,0.8-0.5,1.6-0.2,2.5c0.7,2.3,1.2,4.5,1,6.9c-0.9,0.8-2,0.8-3.1,0.8c-16,0-31.9,0-47.9,0
		c-0.7,0-1.3,0-1.9-0.3c-0.1-3.7,0.6-7.2,2.4-10.5c0.9-0.7,2-0.8,3.1-0.8c14.4,0,28.8,0,43.2,0C116.6,80.3,118,80.2,118.8,81.6z"/>
	<path class="st27" d="M66.6,91.5c1-0.7,2.1-0.5,3.2-0.5c16.6,0,33.2,0,49.7,0c0.3,3.3-0.1,6.5-1.5,9.5c-0.8-0.9-1.9-0.5-2.8-0.5
		c-14.9,0-29.9,0-44.8,0c-1,0-2.2,0.4-3-0.7C67.2,96.7,66.2,94.2,66.6,91.5z"/>
	<path class="st39" d="M118.8,81.6c-1.1-0.7-2.4-0.6-3.6-0.6c-15.4,0-30.8,0-46.1,0c3.1-8.6,14-16.1,22.8-15.9
		c1.3,0,1.2,0.7,1.2,1.6c0,2.6,0.1,5.1,0,7.7c-0.1,2,0.8,0.9,1.5,0.6c8.5,0,17.1,0,25.6,0c1.6,0,3.1,0.1,4.6,0.6
		C122.8,77.6,120.8,79.6,118.8,81.6z"/>
	<path class="st41" d="M88.1,109c7.3,0,14.6,0,21.8,0c0.9,0,1.8-0.3,2.6,0.5c-4.8,4.8-10.3,8.1-17.2,8.8c-6.9,0.6-7.3,0.4-7.2-6.3
		C88.1,111,88.1,110,88.1,109z"/>
</g>
</svg>
